<svg xmlns="http://www.w3.org/2000/svg" width="25" height="24" viewBox="0 0 25 24" fill="none">
  <path d="M11.916 9H13.916V7H11.916M12.916 20C8.50602 20 4.91602 16.41 4.91602 12C4.91602 7.59 8.50602 4 12.916 4C17.326 4 20.916 7.59 20.916 12C20.916 16.41 17.326 20 12.916 20ZM12.916 2C11.6028 2 10.3024 2.25866 9.08918 2.7612C7.87593 3.26375 6.77353 4.00035 5.84495 4.92893C3.96958 6.8043 2.91602 9.34784 2.91602 12C2.91602 14.6522 3.96958 17.1957 5.84495 19.0711C6.77353 19.9997 7.87593 20.7362 9.08918 21.2388C10.3024 21.7413 11.6028 22 12.916 22C15.5682 22 18.1117 20.9464 19.9871 19.0711C21.8624 17.1957 22.916 14.6522 22.916 12C22.916 10.6868 22.6574 9.38642 22.1548 8.17317C21.6523 6.95991 20.9157 5.85752 19.9871 4.92893C19.0585 4.00035 17.9561 3.26375 16.7429 2.7612C15.5296 2.25866 14.2292 2 12.916 2ZM11.916 17H13.916V11H11.916V17Z" fill="#0B6C61"/>
</svg>