<svg width="24" height="24" viewBox="0 0 24 24" fill="none" xmlns="http://www.w3.org/2000/svg">
<path d="M20.4266 9.87596C20.3375 9.593 20.1702 9.34341 19.9454 9.15821C19.7206 8.973 19.4482 8.86035 19.1622 8.83425L14.9866 8.45993L13.3529 4.42518C13.2406 4.1508 13.0528 3.91676 12.8129 3.75225C12.5731 3.58773 12.2919 3.5 12.0043 3.5C11.7167 3.5 11.4355 3.58773 11.1956 3.75225C10.9558 3.91676 10.768 4.1508 10.6556 4.42518L9.01983 8.45993L4.84422 8.83425C4.55661 8.85893 4.28244 8.9711 4.05611 9.15668C3.82977 9.34227 3.66136 9.593 3.572 9.87742C3.48264 10.1618 3.47632 10.4673 3.55382 10.7554C3.63132 11.0435 3.7892 11.3015 4.00764 11.497L7.1811 14.367L6.22877 18.6372C6.16346 18.9279 6.18229 19.2322 6.28291 19.5119C6.38353 19.7917 6.56148 20.0345 6.79451 20.21C7.02754 20.3854 7.3053 20.4858 7.59308 20.4986C7.88087 20.5114 8.16589 20.4359 8.41254 20.2817L12.0021 18.0221L15.5916 20.2817C15.8383 20.4357 16.1232 20.5109 16.4109 20.4981C16.6985 20.4852 16.9761 20.3847 17.209 20.2093C17.4419 20.0338 17.6198 19.7911 17.7204 19.5115C17.821 19.2319 17.8399 18.9278 17.7747 18.6372L16.8224 14.367L19.9958 11.497C20.2137 11.3008 20.3708 11.0423 20.4474 10.7539C20.524 10.4655 20.5168 10.1601 20.4266 9.87596ZM15.5367 13.112C15.3358 13.2931 15.1863 13.5276 15.1044 13.7902C15.0224 14.0528 15.0111 14.3336 15.0715 14.6024L15.9059 18.3471L12.7603 16.3669C12.5319 16.2228 12.2696 16.1465 12.0021 16.1465C11.7346 16.1465 11.4723 16.2228 11.2439 16.3669L8.09827 18.3471L8.93266 14.6024C8.99312 14.3336 8.98177 14.0528 8.89981 13.7902C8.81784 13.5276 8.66838 13.2931 8.46748 13.112L5.67715 10.5889L9.35022 10.2594C9.6162 10.2358 9.87083 10.137 10.0864 9.97382C10.302 9.81063 10.4702 9.58927 10.5729 9.33385L12.0021 5.80401L13.4313 9.33385C13.5339 9.58927 13.7022 9.81063 13.9178 9.97382C14.1333 10.137 14.388 10.2358 14.654 10.2594L18.327 10.5889L15.5367 13.112Z" fill="#FFD800"/>
</svg>
