<svg width="18" height="18" viewBox="0 0 18 18" fill="none" xmlns="http://www.w3.org/2000/svg">
<path d="M17.4266 6.87596C17.3375 6.593 17.1702 6.34341 16.9454 6.15821C16.7206 5.973 16.4482 5.86035 16.1622 5.83425L11.9866 5.45993L10.3529 1.42518C10.2406 1.1508 10.0528 0.916764 9.81294 0.752245C9.57312 0.587726 9.29188 0.5 9.00429 0.5C8.7167 0.5 8.43546 0.587726 8.19564 0.752245C7.95582 0.916764 7.76802 1.1508 7.65564 1.42518L6.01983 5.45993L1.84422 5.83425C1.55661 5.85893 1.28244 5.9711 1.05611 6.15668C0.829772 6.34227 0.66136 6.593 0.572001 6.87742C0.482643 7.16183 0.476317 7.46727 0.553819 7.7554C0.63132 8.04353 0.789197 8.30152 1.00764 8.497L4.1811 11.367L3.22877 15.6372C3.16346 15.9279 3.18229 16.2322 3.28291 16.5119C3.38353 16.7917 3.56148 17.0345 3.79451 17.21C4.02754 17.3854 4.3053 17.4858 4.59308 17.4986C4.88087 17.5114 5.16589 17.4359 5.41254 17.2817L9.00209 15.0221L12.5916 17.2817C12.8383 17.4357 13.1232 17.5109 13.4109 17.4981C13.6985 17.4852 13.9761 17.3847 14.209 17.2093C14.4419 17.0338 14.6198 16.7911 14.7204 16.5115C14.821 16.2319 14.8399 15.9278 14.7747 15.6372L13.8224 11.367L16.9958 8.497C17.2137 8.30081 17.3708 8.0423 17.4474 7.75391C17.524 7.46552 17.5168 7.1601 17.4266 6.87596ZM12.5367 10.112C12.3358 10.2931 12.1863 10.5276 12.1044 10.7902C12.0224 11.0528 12.0111 11.3336 12.0715 11.6024L12.9059 15.3471L9.76029 13.3669C9.53186 13.2228 9.26955 13.1465 9.00209 13.1465C8.73463 13.1465 8.47233 13.2228 8.24389 13.3669L5.09827 15.3471L5.93266 11.6024C5.99312 11.3336 5.98177 11.0528 5.89981 10.7902C5.81784 10.5276 5.66838 10.2931 5.46748 10.112L2.67715 7.58891L6.35022 7.25939C6.6162 7.23579 6.87083 7.13701 7.08641 6.97382C7.30199 6.81063 7.47024 6.58927 7.57286 6.33385L9.00209 2.80401L10.4313 6.33385C10.5339 6.58927 10.7022 6.81063 10.9178 6.97382C11.1333 7.13701 11.388 7.23579 11.654 7.25939L15.327 7.58891L12.5367 10.112Z" fill="#1F9A7C"/>
</svg>