<?xml version="1.0" ?>
<!-- Uploaded to: SVG Repo, www.svgrepo.com, Generator: SVG Repo Mixer Tools -->
<svg width="800px" height="800px" viewBox="0 0 512 512" id="Layer_1" version="1.1" xml:space="preserve" xmlns="http://www.w3.org/2000/svg" xmlns:xlink="http://www.w3.org/1999/xlink">
<g id="_x30_18_Wishlist">
<g>
<g>
<g>
<g>
<path d="M375.902,76.077v409.802c0,12.239-9.876,22.115-22.115,22.115H26.116       c-12.239,0-22.115-9.875-22.115-22.115V76.077c0-12.239,9.876-22.115,22.115-22.115h327.671       C366.026,53.962,375.902,63.837,375.902,76.077z" style="fill:#D3D9D9;"/>
</g>
</g>
<g>
<g>
<path d="M52.591,508.025h-26.5c-12.193,0-22.11-9.917-22.11-22.11V76.059       c0-12.193,9.917-22.111,22.11-22.111h26.5c-12.275,0-22.112,9.917-22.112,22.111v409.855       C30.478,498.108,40.316,508.025,52.591,508.025z" style="fill:#EDEDED;"/>
</g>
</g>
<g>
<g>
<path d="M375.902,76.06v409.855c0,12.193-9.917,22.11-22.11,22.11h-26.5       c12.275,0,22.112-9.917,22.112-22.11V76.06c0-12.193-9.838-22.111-22.112-22.111h26.5       C365.985,53.949,375.902,63.866,375.902,76.06z" style="fill:#A8B2B4;"/>
</g>
</g>
<rect height="387.792" style="fill:#FFFFFF;" width="305.653" x="37.124" y="87.081"/>
<g>
<path d="M284.403,48.911v42.71c0,5.402-4.389,9.792-9.791,9.792H106.388      c-5.402,0-9.792-4.389-9.792-9.792v-42.71c0-5.402,4.389-9.791,9.792-9.791h3.63c21.186,0,40.6-9.792,55.54-24.731      c6.415-6.415,15.193-10.382,24.901-10.382c9.79,0,18.569,3.883,24.9,10.298c15.025,15.024,34.439,24.816,55.624,24.816h3.63      C280.014,39.12,284.403,43.508,284.403,48.911z" style="fill:#FEDD8E;"/>
</g>
<g>
<path d="M129.408,39.154h1.582v-3.339c-6.73,2.113-13.753,3.339-21.011,3.339h-3.576      c-5.446,0-9.836,4.39-9.836,9.755v42.676c0,5.446,4.39,9.836,9.836,9.836h23.005c-5.364,0-9.754-4.39-9.754-9.836V48.909      C119.653,43.544,124.043,39.154,129.408,39.154z" style="fill:#FDD367;"/>
</g>
<g>
<path d="M251.562,39.154h-1.582v-3.339c6.73,2.113,13.753,3.339,21.011,3.339h3.576      c5.446,0,9.836,4.39,9.836,9.755v42.676c0,5.446-4.39,9.836-9.836,9.836h-23.005c5.364,0,9.754-4.39,9.754-9.836V48.909      C261.316,43.544,256.927,39.154,251.562,39.154z" style="fill:#FEE9B4;"/>
</g>
<g>
<path d="M213.523,55.747c0,12.687-10.291,22.979-23.066,22.979c-12.688,0-22.98-10.292-22.98-22.979      s10.292-22.979,22.98-22.979C203.232,32.769,213.523,43.06,213.523,55.747z" style="fill:#FFFFFF;"/>
<path d="M190.456,82.728c-14.879,0-26.982-12.102-26.982-26.982c0-14.876,12.102-26.978,26.982-26.978      c14.926,0,27.067,12.102,27.067,26.978C217.524,70.626,205.383,82.728,190.456,82.728z M190.456,36.77      c-10.465,0-18.981,8.512-18.981,18.977s8.516,18.981,18.981,18.981c10.512,0,19.067-8.516,19.067-18.981      S200.969,36.77,190.456,36.77z" style="fill:#333333;"/>
</g>
</g>
<g>
<g>
<g>
<g>
<path d="M302.137,434.631H173.445c-2.211,0-4-1.789-4-4s1.789-4,4-4h128.692c2.211,0,4,1.789,4,4        C306.137,432.843,304.348,434.631,302.137,434.631z" style="fill:#333333;"/>
</g>
<g>
<path d="M238.568,406.655h-65.124c-2.211,0-4-1.789-4-4s1.789-4,4-4h65.124c2.211,0,4,1.789,4,4        S240.779,406.655,238.568,406.655z" style="fill:#333333;"/>
</g>
</g>
<g>
<path d="M132.799,401.655v29.98c0,6.895-5.59,12.485-12.485,12.485H90.252       c-6.895,0-12.485-5.59-12.485-12.485v-29.98c0-6.896,5.59-12.485,12.485-12.485h30.062       C127.209,389.169,132.799,394.759,132.799,401.655z" style="fill:#7BDE9E;"/>
</g>
<g>
<path d="M132.821,401.628v29.995c0,6.909-5.608,12.518-12.519,12.518H90.226       c-6.91,0-12.437-5.609-12.437-12.518v-6.666h23.331c6.908,0,12.517-5.609,12.517-12.518V389.19h6.666       C127.213,389.19,132.821,394.798,132.821,401.628z" style="fill:#51D27F;"/>
</g>
<g>
<path d="M120.313,448.12h-30.06c-9.09,0-16.485-7.395-16.485-16.485v-29.982       c0-9.09,7.395-16.485,16.485-16.485h30.06c9.09,0,16.485,7.395,16.485,16.485v29.982       C136.798,440.725,129.403,448.12,120.313,448.12z M90.253,393.17c-4.68,0-8.485,3.805-8.485,8.485v29.982       c0,4.68,3.805,8.485,8.485,8.485h30.06c4.68,0,8.485-3.805,8.485-8.485v-29.982c0-4.68-3.805-8.485-8.485-8.485H90.253z" style="fill:#333333;"/>
</g>
</g>
<g>
<g>
<g>
<path d="M302.137,348.961H173.445c-2.211,0-4-1.789-4-4s1.789-4,4-4h128.692c2.211,0,4,1.789,4,4        C306.137,347.172,304.348,348.961,302.137,348.961z" style="fill:#333333;"/>
</g>
<g>
<path d="M238.568,320.984h-65.124c-2.211,0-4-1.789-4-4s1.789-4,4-4h65.124c2.211,0,4,1.789,4,4        C242.568,319.194,240.779,320.984,238.568,320.984z" style="fill:#333333;"/>
</g>
</g>
<g>
<path d="M132.799,315.983v29.98c0,6.895-5.59,12.485-12.485,12.485H90.252       c-6.895,0-12.485-5.59-12.485-12.485v-29.98c0-6.895,5.59-12.485,12.485-12.485h30.062       C127.209,303.498,132.799,309.088,132.799,315.983z" style="fill:#7BDE9E;"/>
</g>
<g>
<path d="M132.821,315.956v29.995c0,6.909-5.608,12.518-12.519,12.518H90.226       c-6.91,0-12.437-5.609-12.437-12.518v-6.666h23.331c6.908,0,12.517-5.609,12.517-12.518v-23.249h6.666       C127.213,303.519,132.821,309.128,132.821,315.956z" style="fill:#51D27F;"/>
</g>
<g>
<path d="M120.313,362.45h-30.06c-9.09,0-16.485-7.395-16.485-16.485v-29.982       c0-9.09,7.395-16.485,16.485-16.485h30.06c9.09,0,16.485,7.395,16.485,16.485v29.982       C136.798,355.055,129.403,362.45,120.313,362.45z M90.253,307.499c-4.68,0-8.485,3.805-8.485,8.485v29.982       c0,4.68,3.805,8.485,8.485,8.485h30.06c4.68,0,8.485-3.805,8.485-8.485v-29.982c0-4.68-3.805-8.485-8.485-8.485H90.253z" style="fill:#333333;"/>
</g>
</g>
<g>
<g>
<g>
<path d="M302.137,263.29H173.445c-2.211,0-4-1.789-4-4s1.789-4,4-4h128.692c2.211,0,4,1.789,4,4        S304.348,263.29,302.137,263.29z" style="fill:#333333;"/>
</g>
<g>
<path d="M238.568,235.312h-65.124c-2.211,0-4-1.789-4-4s1.789-4,4-4h65.124c2.211,0,4,1.789,4,4        S240.779,235.312,238.568,235.312z" style="fill:#333333;"/>
</g>
</g>
<g>
<path d="M132.799,230.311v29.98c0,6.895-5.59,12.485-12.485,12.485H90.252       c-6.895,0-12.485-5.59-12.485-12.485v-29.98c0-6.895,5.59-12.485,12.485-12.485h30.062       C127.209,217.826,132.799,223.416,132.799,230.311z" style="fill:#7BDE9E;"/>
</g>
<g>
<path d="M132.821,230.284v29.995c0,6.909-5.608,12.518-12.519,12.518H90.226       c-6.91,0-12.437-5.609-12.437-12.518v-6.666h23.331c6.908,0,12.517-5.609,12.517-12.518v-23.249h6.666       C127.213,217.847,132.821,223.456,132.821,230.284z" style="fill:#51D27F;"/>
</g>
<g>
<path d="M120.313,276.779h-30.06c-9.09,0-16.485-7.399-16.485-16.489v-29.978       c0-9.09,7.395-16.485,16.485-16.485h30.06c9.09,0,16.485,7.395,16.485,16.485v29.978       C136.798,269.38,129.403,276.779,120.313,276.779z M90.253,221.827c-4.68,0-8.485,3.805-8.485,8.485v29.978       c0,4.68,3.805,8.489,8.485,8.489h30.06c4.68,0,8.485-3.809,8.485-8.489v-29.978c0-4.68-3.805-8.485-8.485-8.485H90.253z" style="fill:#333333;"/>
</g>
</g>
<g>
<g>
<g>
<path d="M302.137,177.599H173.445c-2.211,0-4-1.789-4-4s1.789-4,4-4h128.692c2.211,0,4,1.789,4,4        S304.348,177.599,302.137,177.599z" style="fill:#333333;"/>
</g>
<g>
<path d="M238.568,149.618h-65.124c-2.211,0-4-1.789-4-4s1.789-4,4-4h65.124c2.211,0,4,1.789,4,4        S240.779,149.618,238.568,149.618z" style="fill:#333333;"/>
</g>
</g>
<g>
<path d="M132.799,144.618v29.98c0,6.895-5.59,12.485-12.485,12.485H90.252       c-6.895,0-12.485-5.59-12.485-12.485v-29.98c0-6.895,5.59-12.485,12.485-12.485h30.062       C127.209,132.133,132.799,137.723,132.799,144.618z" style="fill:#7BDE9E;"/>
</g>
<g>
<path d="M132.821,144.591v29.995c0,6.909-5.608,12.518-12.519,12.518H90.226       c-6.91,0-12.437-5.609-12.437-12.518v-6.666h23.331c6.908,0,12.517-5.609,12.517-12.518v-23.249h6.666       C127.213,132.154,132.821,137.763,132.821,144.591z" style="fill:#51D27F;"/>
</g>
<g>
<path d="M120.313,191.084h-30.06c-9.09,0-16.485-7.395-16.485-16.485v-29.982       c0-9.09,7.395-16.485,16.485-16.485h30.06c9.09,0,16.485,7.395,16.485,16.485v29.982       C136.798,183.689,129.403,191.084,120.313,191.084z M90.253,136.133c-4.68,0-8.485,3.805-8.485,8.485V174.6       c0,4.68,3.805,8.485,8.485,8.485h30.06c4.68,0,8.485-3.805,8.485-8.485v-29.982c0-4.68-3.805-8.485-8.485-8.485H90.253z" style="fill:#333333;"/>
</g>
</g>
</g>
<g>
<g>
<path d="M508,219.049c0,51.966-100.765,143.969-100.765,143.969s-100.767-92.003-100.767-143.969      c0-29.792,24.198-53.989,54.056-53.989c19.883,0,37.408,10.784,46.711,26.893c9.301-16.109,26.826-26.893,46.709-26.893      C483.802,165.06,508,189.257,508,219.049z" style="fill:#FC8A8A;"/>
</g>
<g>
<path d="M431.412,170.04c-17.684,45.617-77.652,104.091-92.516,118.144      c-17.939-24.005-32.418-49.462-32.418-69.152c0-29.771,24.175-53.989,54.031-53.989c19.905,0,37.416,10.806,46.727,26.909      C412.789,182.342,421.246,174.611,431.412,170.04z" style="fill:#FCB0B0;"/>
</g>
<g>
<path d="M507.995,219.032c0,51.981-100.759,143.984-100.759,143.984s-16.274-14.864-35.707-35.964      c4.015-3.673,100.631-92.943,100.631-143.856c0-5.51-0.812-10.806-2.349-15.803      C491.893,174.184,507.995,194.771,507.995,219.032z" style="fill:#F96364;"/>
</g>
<path d="M453.943,161.06c-18.524,0-35.896,8.903-46.709,23.595c-6.903-9.379-16.491-16.363-27.333-20.214     V76.076c0-14.399-11.715-26.114-26.114-26.114h-65.385v-1.051c0-7.602-6.188-13.79-13.79-13.79h-3.629     c-18.798,0-37.548-8.399-52.775-23.626c-7.313-7.41-17.169-11.489-27.747-11.489c-10.438,0-20.286,4.106-27.732,11.555     c-15.192,15.192-33.911,23.56-52.709,23.56h-3.633c-7.602,0-13.79,6.188-13.79,13.79v1.051H26.118     C11.716,49.962,0,61.677,0,76.076v409.801c0,14.403,11.715,26.118,26.118,26.118h327.669c14.399,0,26.114-11.715,26.114-26.118     V341.815c13.315,13.753,23.364,22.991,24.638,24.155c0.762,0.699,1.731,1.047,2.695,1.047c0.965,0,1.934-0.348,2.695-1.047     C414.098,362.165,512,272.169,512,219.05C512,187.072,485.956,161.06,453.943,161.06z M353.787,57.962     c9.989,0,18.114,8.125,18.114,18.114v86.204c-3.716-0.747-7.509-1.221-11.375-1.221c-4.743,0-9.33,0.634-13.747,1.711V87.08     c0-2.211-1.789-4-4-4h-54.377V57.962L353.787,57.962L353.787,57.962z M100.598,48.911c0-3.192,2.598-5.789,5.789-5.789h3.633     c20.934,0,41.662-9.2,58.365-25.903c5.938-5.942,13.778-9.211,22.075-9.211c8.422,0,16.255,3.234,22.071,9.125     c16.758,16.758,37.517,25.989,58.451,25.989h3.629c3.192,0,5.789,2.598,5.789,5.789V91.62c0,3.195-2.598,5.793-5.789,5.793     H106.386c-3.192,0-5.789-2.598-5.789-5.793V48.911H100.598z M106.387,105.413h168.225c7.602,0,13.79-6.188,13.79-13.794V91.08     h50.377v74.239c-21.262,8.618-36.31,29.436-36.31,53.731c0,21.83,16.542,49.883,36.31,75.627v176.195H41.124V91.08h51.475v0.539     C92.597,99.225,98.785,105.413,106.387,105.413z M371.901,485.877c0,9.989-8.125,18.118-18.114,18.118H26.118     C16.129,503.995,8,495.866,8,485.877V76.076c0-9.989,8.129-18.114,18.118-18.114h66.479V83.08H37.122c-2.211,0-4,1.789-4,4     v387.792c0,2.211,1.789,4,4,4h305.656c2.211,0,4-1.789,4-4V304.776c8.443,10.343,17.119,20.073,25.122,28.627v152.473H371.901z      M407.234,357.544c-15.926-15.028-96.765-93.543-96.765-138.494c0-27.563,22.454-49.99,50.057-49.99     c17.809,0,34.376,9.539,43.244,24.891c1.43,2.477,5.5,2.477,6.93,0c8.867-15.352,25.435-24.891,43.244-24.891     c27.603,0,50.057,22.427,50.057,49.99C504,264.001,423.161,342.516,407.234,357.544z" style="fill:#333333;"/>
<g>
<g>
<path d="M478.095,223.702l-69.992,69.992c-2.534,2.497-5.802,3.782-9.107,3.782       c-3.268,0-6.573-1.286-9.07-3.782l-27.872-27.872c-0.808-0.808-0.808-2.093,0-2.901l15.277-15.276       c0.808-0.808,2.093-0.808,2.901,0l18.764,18.802l60.922-60.921c0.771-0.771,2.093-0.771,2.864,0l15.313,15.313       C478.866,221.609,478.866,222.931,478.095,223.702z" style="fill:#FFFFFF;"/>
</g>
</g>
<g>
<g>
<path d="M478.096,223.687l-70.005,70.006c-2.52,2.477-5.809,3.802-9.098,3.802       c-3.246,0-6.578-1.324-9.055-3.802l-27.891-27.891c-0.812-0.769-0.812-2.093,0-2.862l7.09-7.09l20.802,20.801       c2.477,2.477,5.808,3.759,9.055,3.759c3.289,0,6.578-1.281,9.098-3.759l62.916-62.916l7.09,7.09       C478.865,221.594,478.865,222.919,478.096,223.687z" style="fill:#EDEDED;"/>
</g>
</g>
<g>
<g>
<path d="M398.996,301.475c-4.414,0-8.75-1.805-11.899-4.953l-27.872-27.872       c-1.148-1.149-1.781-2.672-1.777-4.285c0-1.613,0.637-3.133,1.785-4.277l15.27-15.27c2.363-2.363,6.203-2.356,8.559,0       L399,260.787l58.088-58.088c2.352-2.352,6.172-2.352,8.524,0l15.313,15.313c1.129,1.129,1.75,2.641,1.75,4.258       c0,1.621-0.621,3.133-1.75,4.262l0,0l-69.995,69.991C407.684,299.725,403.453,301.475,398.996,301.475z M366.26,264.372       l26.493,26.493c3.34,3.336,9.125,3.348,12.54-0.02l68.577-68.577l-12.52-12.52l-59.526,59.526       c-0.75,0.75-1.766,1.172-2.828,1.172c0,0,0,0-0.004,0c-1.059,0-2.078-0.422-2.828-1.176l-17.383-17.419L366.26,264.372z        M364.885,265.747l-0.004,0.004C364.885,265.751,364.885,265.747,364.885,265.747z M478.096,223.703h0.039H478.096z" style="fill:#333333;"/>
</g>
</g>
</g>
</g>
</g>
</svg>