<svg width="27" height="29" viewBox="0 0 27 29" fill="none" xmlns="http://www.w3.org/2000/svg">
<path d="M3.54235 28.7853C1.65051 28.7853 0.890902 25.4029 0.733248 24.0557C0.563522 22.7477 0.72111 21.4181 1.19188 20.186C1.39878 19.5998 1.75468 19.0774 2.22458 18.6703C2.69448 18.2632 3.26222 17.9854 3.87199 17.8642C5.54886 17.5776 6.73843 18.5808 8.25764 18.9248C8.54301 19.0164 8.84726 19.0325 9.1407 18.9714C9.43413 18.9104 9.70675 18.7744 9.93195 18.5766C10.1572 18.3788 10.3273 18.1261 10.4257 17.843C10.5241 17.5599 10.5474 17.2561 10.4935 16.9613C9.86284 14.4962 5.37687 14.4532 3.54235 14.4532C3.54235 11.7874 6.46612 11.4434 8.55861 11.644C9.79997 11.764 11.0223 12.0334 12.199 12.4467C12.9156 12.6903 13.7469 13.3066 14.5351 13.2493C15.7247 13.1489 15.9683 11.9164 15.4524 11.0134C14.2055 8.89227 10.6654 8.72029 8.55861 8.72029C8.55861 5.85385 11.0381 5.30923 13.4172 5.73919C14.6456 5.98103 15.8428 6.36085 16.9859 6.87144C17.7169 7.18674 18.5911 7.78869 19.3937 7.51638C21.4576 6.88577 19.3077 4.67861 18.3905 4.14832C17.7467 3.79308 17.0637 3.51411 16.3553 3.31706C15.5814 3.08774 14.6355 3.17374 15.3377 2.27081C16.4359 1.30198 17.7983 0.68314 19.2504 0.49362C21.9592 -0.136995 25.6999 -0.251653 26.3592 3.1594C26.5789 4.96031 26.1467 6.78038 25.1409 8.29032C22.4702 12.857 19.1647 17.0215 15.3234 20.659C13.2885 22.745 11.0832 24.6578 8.7306 26.3775C7.29738 27.4094 5.40554 28.7853 3.54235 28.7853Z" fill="#232424"/>
</svg>
