<svg width="24" height="24" viewBox="0 0 24 24" fill="none" xmlns="http://www.w3.org/2000/svg">
<path d="M11.5815 0.0395737C10.981 0.156935 10.3758 0.626379 10.1225 1.17093C9.93483 1.56527 9.88791 1.86102 9.88791 2.56988V3.16607L9.49383 3.33977C7.62663 4.17538 6.21919 5.96865 5.75474 8.09993C5.6703 8.49426 5.65153 8.79471 5.61869 10.3861C5.58116 12.2263 5.54832 12.6066 5.36535 13.3108C5.06979 14.4327 4.44113 15.5688 3.53568 16.6109C3.24012 16.9489 3.15568 17.0241 3.00555 17.0522C2.48949 17.1461 1.89837 17.6203 1.62626 18.1601C1.01168 19.3854 1.76701 20.9017 3.12753 21.1599C3.27765 21.188 4.40829 21.2068 5.96586 21.2068L8.55085 21.2115L8.67283 21.5964C9.03876 22.7231 9.92075 23.5587 11.1311 23.9155C11.5205 24.0282 12.4776 24.0282 12.867 23.9155C13.5613 23.7089 14.0539 23.4132 14.5371 22.9109C14.9125 22.5213 15.1564 22.1081 15.3253 21.5964L15.4473 21.2115L18.0323 21.2068C19.5898 21.2068 20.7205 21.188 20.8706 21.1599C22.2311 20.9017 22.9864 19.3854 22.3719 18.1601C22.0998 17.6203 21.5086 17.1461 20.9926 17.0522C20.8425 17.0241 20.758 16.9489 20.4624 16.6109C19.6837 15.7143 19.1066 14.7426 18.7876 13.7896C18.4545 12.8038 18.3794 12.1512 18.3794 10.25C18.3794 9.49887 18.356 8.69143 18.3325 8.4614C18.0745 6.19398 16.5873 4.19885 14.4996 3.33038L14.1102 3.16607V2.56988C14.1102 2.24127 14.0868 1.86102 14.0633 1.72018C13.8428 0.574739 12.7262 -0.185759 11.5815 0.0395737ZM12.3181 1.49485C12.609 1.64038 12.6981 1.85163 12.7028 1.49485H12.3181Z" fill="#FFD800"/>
<path d="M1.5371 3.49938C1.40574 3.5698 1.33068 3.67777 1.13364 4.06272C-0.156515 6.66813 -0.358247 9.97302 0.594118 12.9258C0.777085 13.5032 0.838073 13.6065 1.05857 13.7333C1.40574 13.9257 1.80451 13.8272 2.00625 13.4985C2.13761 13.2826 2.12353 13.062 1.94057 12.4845C1.55587 11.2875 1.4292 10.4612 1.42451 9.11863C1.41981 8.02952 1.4808 7.51313 1.72476 6.55547C1.88427 5.91702 2.0297 5.50861 2.34403 4.78097C2.54576 4.31622 2.5786 4.20825 2.55984 4.01577C2.51292 3.53225 1.98279 3.26466 1.5371 3.49938Z" fill="#FFD800"/>
<path d="M21.7808 3.49938C21.5462 3.6496 21.4617 3.77635 21.4383 4.01577C21.4195 4.20824 21.4524 4.31621 21.6541 4.78096C21.9684 5.5086 22.1139 5.91702 22.2734 6.55546C22.5173 7.51313 22.5783 8.02952 22.5736 9.11863C22.5689 10.4612 22.4423 11.2875 22.0576 12.4845C21.8746 13.062 21.8605 13.2826 21.9919 13.4985C22.1936 13.8272 22.5924 13.9257 22.9396 13.7333C23.16 13.6065 23.221 13.5032 23.404 12.9258C24.3517 9.98241 24.164 6.7808 22.8786 4.09088C22.6252 3.55572 22.5126 3.45244 22.1561 3.42897C21.9825 3.41488 21.884 3.43366 21.7808 3.49938Z" fill="#FFD800"/>
<path d="M3.40431 6.56483C3.29641 6.61647 3.1932 6.72444 3.14159 6.83241C3.029 7.05305 2.9164 7.607 2.84603 8.29708C2.7522 9.25474 2.87887 10.8462 3.07591 11.1137C3.36678 11.5034 3.93445 11.494 4.23001 11.0997C4.34729 10.94 4.35668 10.7194 4.26285 9.91666C4.19717 9.35333 4.21593 8.43791 4.30038 7.96847C4.47865 6.99672 4.47396 7.09061 4.36137 6.86997C4.16433 6.5038 3.76086 6.37236 3.40431 6.56483Z" fill="#FFD800"/>
<path d="M19.9182 6.56952C19.8197 6.62586 19.6977 6.75261 19.6367 6.86997C19.5241 7.09061 19.5195 6.99672 19.6977 7.96847C19.7822 8.43791 19.8009 9.35333 19.7353 9.91666C19.6414 10.7194 19.6508 10.94 19.7681 11.0997C20.0637 11.494 20.6313 11.5034 20.9222 11.1137C21.1192 10.8462 21.2459 9.25474 21.1521 8.29708C21.0817 7.607 20.9691 7.05305 20.8565 6.83241C20.758 6.63055 20.4812 6.46625 20.2466 6.46625C20.1622 6.46625 20.0121 6.51319 19.9182 6.56952Z" fill="#FFD800"/>
</svg>
