<svg width="31" height="23" viewBox="0 0 31 23" fill="none" xmlns="http://www.w3.org/2000/svg">
<path d="M22.4584 4.8318H26.5339L30.6093 10.3418V18.4167H27.8448C27.6812 19.5484 27.1154 20.5834 26.2509 21.3319C25.3864 22.0804 24.2812 22.4924 23.1377 22.4924C21.9941 22.4924 20.8889 22.0804 20.0244 21.3319C19.1599 20.5834 18.5941 19.5484 18.4305 18.4167H11.543C11.3815 19.55 10.8165 20.5871 9.95177 21.3373C9.08704 22.0876 7.98066 22.5006 6.83584 22.5006C5.69102 22.5006 4.58464 22.0876 3.71991 21.3373C2.85519 20.5871 2.29019 19.55 2.12869 18.4167H0.722656V2.11483C0.722656 1.75454 0.865782 1.409 1.12055 1.15424C1.37531 0.899474 1.72085 0.756348 2.08114 0.756348H21.0999C21.4602 0.756348 21.8058 0.899474 22.0605 1.15424C22.3153 1.409 22.4584 1.75454 22.4584 2.11483V4.8318ZM22.4584 7.54877V11.6242H27.8924V11.2371L25.1645 7.54877H22.4584Z" fill="#232424"/>
</svg>
