<svg xmlns="http://www.w3.org/2000/svg" width="20" height="20" viewBox="0 0 20 20" fill="none">
  <path d="M3.76626 16.6733L17.5004 16.6667V13.75C17.0584 13.75 16.6345 13.5744 16.3219 13.2618C16.0094 12.9493 15.8338 12.5254 15.8338 12.0833C15.8338 11.6413 16.0094 11.2174 16.3219 10.9048C16.6345 10.5923 17.0584 10.4167 17.5004 10.4167V7.5H3.56543" stroke="white" stroke-width="2" stroke-linecap="round" stroke-linejoin="round"/>
  <path d="M17.5 7.49984L9.67917 3.33984C7.58583 3.43984 5.71417 4.52318 4.40667 6.19401C3.22083 7.71068 2.5 9.71151 2.5 11.9057C2.5 13.6698 2.96667 15.3098 3.76583 16.6732M12.5 10.8332V10.8415M6.66667 10.8332V10.8415M9.16667 13.3332V13.3415" stroke="white" stroke-width="2" stroke-linecap="round" stroke-linejoin="round"/>
</svg>