<svg xmlns="http://www.w3.org/2000/svg" width="20" height="20" viewBox="0 0 20 20" fill="none">
  <path d="M2.5 10H10V11.25H2.5V10ZM1.25 6.875H7.5V8.125H1.25V6.875Z" fill="#FD9F51"/>
  <path d="M18.6995 10.3788L16.8245 6.00375C16.7763 5.8913 16.6963 5.79546 16.5941 5.72813C16.492 5.66079 16.3724 5.62493 16.2501 5.625H14.3751V4.375C14.3751 4.20924 14.3092 4.05027 14.192 3.93306C14.0748 3.81585 13.9158 3.75 13.7501 3.75H3.75009V5H13.1251V12.8475C12.8403 13.0129 12.5911 13.233 12.3917 13.4952C12.1924 13.7573 12.047 14.0564 11.9638 14.375H8.03634C7.88422 13.7858 7.52244 13.2724 7.01883 12.9309C6.51522 12.5894 5.90435 12.4433 5.30071 12.5199C4.69708 12.5966 4.14213 12.8908 3.73989 13.3474C3.33764 13.8039 3.11572 14.3915 3.11572 15C3.11572 15.6085 3.33764 16.1961 3.73989 16.6526C4.14213 17.1092 4.69708 17.4034 5.30071 17.4801C5.90435 17.5567 6.51522 17.4106 7.01883 17.0691C7.52244 16.7276 7.88422 16.2142 8.03634 15.625H11.9638C12.0998 16.1614 12.4107 16.6371 12.8474 16.977C13.2842 17.3168 13.8217 17.5013 14.3751 17.5013C14.9284 17.5013 15.466 17.3168 15.9027 16.977C16.3394 16.6371 16.6504 16.1614 16.7863 15.625H18.1251C18.2908 15.625 18.4498 15.5592 18.567 15.4419C18.6842 15.3247 18.7501 15.1658 18.7501 15V10.625C18.7501 10.5403 18.7329 10.4565 18.6995 10.3788ZM5.62509 16.25C5.37786 16.25 5.13619 16.1767 4.93062 16.0393C4.72506 15.902 4.56485 15.7068 4.47024 15.4784C4.37563 15.2499 4.35087 14.9986 4.39911 14.7561C4.44734 14.5137 4.56639 14.2909 4.7412 14.1161C4.91602 13.9413 5.13875 13.8223 5.38122 13.774C5.6237 13.7258 5.87503 13.7505 6.10344 13.8452C6.33185 13.9398 6.52707 14.1 6.66442 14.3055C6.80178 14.5111 6.87509 14.7528 6.87509 15C6.87476 15.3314 6.74295 15.6492 6.50861 15.8835C6.27426 16.1179 5.95651 16.2497 5.62509 16.25ZM14.3751 6.875H15.8376L17.1776 10H14.3751V6.875ZM14.3751 16.25C14.1279 16.25 13.8862 16.1767 13.6806 16.0393C13.4751 15.902 13.3148 15.7068 13.2202 15.4784C13.1256 15.2499 13.1009 14.9986 13.1491 14.7561C13.1973 14.5137 13.3164 14.2909 13.4912 14.1161C13.666 13.9413 13.8887 13.8223 14.1312 13.774C14.3737 13.7258 14.625 13.7505 14.8534 13.8452C15.0818 13.9398 15.2771 14.1 15.4144 14.3055C15.5518 14.5111 15.6251 14.7528 15.6251 15C15.6248 15.3314 15.493 15.6492 15.2586 15.8835C15.0243 16.1179 14.7065 16.2497 14.3751 16.25ZM17.5001 14.375H16.7863C16.6487 13.8396 16.3372 13.3651 15.9009 13.0258C15.4645 12.6865 14.9279 12.5015 14.3751 12.5V11.25H17.5001V14.375Z" fill="#FD9F51"/>
</svg>