<svg width="50" height="46" viewBox="0 0 50 46" fill="none" xmlns="http://www.w3.org/2000/svg">
<path fill-rule="evenodd" clip-rule="evenodd" d="M49.1971 0.573581C49.3762 0.738355 49.4561 0.973484 49.4108 1.20275L47.9553 8.56742C47.9523 8.58259 47.9488 8.59766 47.9447 8.61262C47.5366 10.1144 46.2888 11.9053 44.4085 12.8178C43.452 13.282 42.3307 13.5178 41.0941 13.3619C40.0351 13.2284 38.9306 12.8127 37.8011 12.0622L36.4618 13.2944C36.1604 13.5717 35.6716 13.5717 35.3702 13.2944C35.0688 13.0171 35.0688 12.5674 35.3702 12.2901L36.7051 11.062C35.8228 9.96687 35.3243 8.91002 35.1509 7.90704C34.9493 6.74157 35.1951 5.69425 35.7144 4.80971C36.7337 3.07372 38.7784 1.99748 40.5101 1.71575L48.5133 0.377044C48.7625 0.335359 49.018 0.408808 49.1971 0.573581ZM38.9093 11.0426C39.7895 11.5923 40.5921 11.8651 41.3037 11.9548C42.1911 12.0667 42.9893 11.9008 43.6883 11.5616C45.1105 10.8714 46.1151 9.46168 46.4411 8.28966L47.4499 3.18533L42.1459 8.06502H43.9211C44.3474 8.06502 44.6929 8.38295 44.6929 8.77515C44.6929 9.16734 44.3474 9.48528 43.9211 9.48528L40.6021 9.48528L38.9093 11.0426ZM41.0543 7.06074L46.3583 2.18105L40.7804 3.11408C39.4197 3.335 37.8269 4.20019 37.0727 5.48471C36.7051 6.11076 36.5302 6.84394 36.6754 7.68388C36.7947 8.37331 37.1351 9.16413 37.8105 10.045L39.5105 8.481V5.42757C39.5105 5.03538 39.8561 4.71744 40.2824 4.71744C40.7087 4.71744 41.0543 5.03538 41.0543 5.42757V7.06074Z" fill="#CECECE"/>
<path fill-rule="evenodd" clip-rule="evenodd" d="M0.866067 45.1546C1.04517 45.3194 1.30074 45.3928 1.54994 45.3511L9.55501 44.0121C9.5715 44.0093 9.58788 44.0061 9.60414 44.0023C11.2366 43.6269 13.1832 42.4789 14.175 40.7491C14.6795 39.8691 14.9359 38.8375 14.7664 37.6998C14.6213 36.7255 14.1695 35.7093 13.3537 34.6702L14.693 33.4381C14.9944 33.1608 14.9944 32.7111 14.693 32.4338C14.3916 32.1565 13.9028 32.1565 13.6014 32.4338L12.2665 33.6619C11.0761 32.8502 9.9274 32.3916 8.8372 32.232C7.57039 32.0466 6.432 32.2727 5.47055 32.7505C3.5836 33.6882 2.41378 35.5694 2.10756 37.1625L0.65244 44.5254C0.60713 44.7547 0.686965 44.9898 0.866067 45.1546ZM12.2455 35.6898C12.8429 36.4995 13.1394 37.2379 13.2369 37.8926C13.3585 38.7091 13.1782 39.4433 12.8095 40.0865C12.0593 41.3949 10.527 42.3191 9.2531 42.6191L3.70492 43.5471L9.00892 38.6674V40.3006C9.00892 40.6928 9.35451 41.0107 9.7808 41.0107C10.2071 41.0107 10.5527 40.6928 10.5527 40.3006L10.5527 37.2472L12.2455 35.6898ZM7.91732 37.6632L2.61332 42.5429L3.62748 37.4112C3.86761 36.1593 4.80803 34.694 6.20424 34.0001C6.88474 33.6619 7.68166 33.501 8.59464 33.6346C9.34403 33.7443 10.2036 34.0576 11.1611 34.6789L9.46108 36.2429H6.14213C5.71584 36.2429 5.37026 36.5608 5.37026 36.953C5.37026 37.3452 5.71584 37.6632 6.14213 37.6632H7.91732Z" fill="#CECECE"/>
<path fill-rule="evenodd" clip-rule="evenodd" d="M49.1339 45.1546C48.9548 45.3194 48.6993 45.3928 48.4501 45.3511L40.445 44.0121C40.4285 44.0093 40.4121 44.0061 40.3959 44.0023C38.7634 43.6269 36.8168 42.4789 35.825 40.7491C35.3205 39.8691 35.0641 38.8375 35.2336 37.6998C35.3787 36.7255 35.8305 35.7093 36.6463 34.6702L35.307 33.4381C35.0056 33.1608 35.0056 32.7111 35.307 32.4338C35.6084 32.1565 36.0972 32.1565 36.3986 32.4338L37.7335 33.6619C38.9239 32.8502 40.0726 32.3916 41.1628 32.232C42.4296 32.0466 43.568 32.2727 44.5294 32.7505C46.4164 33.6882 47.5862 35.5694 47.8924 37.1625L49.3476 44.5254C49.3929 44.7547 49.313 44.9898 49.1339 45.1546ZM37.7545 35.6898C37.1571 36.4995 36.8606 37.2379 36.7631 37.8926C36.6415 38.7091 36.8218 39.4433 37.1905 40.0865C37.9407 41.3949 39.473 42.3191 40.7469 42.6191L46.2951 43.5471L40.9911 38.6674V40.3006C40.9911 40.6928 40.6455 41.0107 40.2192 41.0107C39.7929 41.0107 39.4473 40.6928 39.4473 40.3006V37.2472L37.7545 35.6898ZM42.0827 37.6632L47.3867 42.5429L46.3725 37.4112C46.1324 36.1593 45.192 34.694 43.7958 34.0001C43.1153 33.6619 42.3183 33.501 41.4054 33.6346C40.656 33.7443 39.7964 34.0575 38.8389 34.6789L40.5389 36.2429H43.8579C44.2842 36.2429 44.6297 36.5608 44.6297 36.953C44.6297 37.3452 44.2842 37.6632 43.8579 37.6632H42.0827Z" fill="#CECECE"/>
<path fill-rule="evenodd" clip-rule="evenodd" d="M0.739656 0.631719C0.560555 0.796492 0.480719 1.03162 0.526029 1.26089L1.9815 8.62556C1.98449 8.64073 1.98803 8.6558 1.99209 8.67076C2.4002 10.1726 3.64799 11.9635 5.52825 12.8759C6.4848 13.3401 7.60609 13.5759 8.8427 13.42C9.90166 13.2865 11.0062 12.8709 12.1357 12.1204L13.475 13.3525C13.7764 13.6298 14.2652 13.6298 14.5666 13.3525C14.868 13.0752 14.868 12.6256 14.5666 12.3482L13.2317 11.1202C14.114 10.025 14.6125 8.96816 14.7859 7.96517C14.9875 6.7997 14.7417 5.75239 14.2223 4.86785C13.2031 3.13185 11.1584 2.05561 9.42668 1.77389L1.42353 0.435181C1.17433 0.393496 0.918757 0.466945 0.739656 0.631719ZM11.0275 11.1008C10.1473 11.6504 9.34471 11.9232 8.6331 12.0129C7.74564 12.1248 6.94753 11.9589 6.24849 11.6197C4.82627 10.9295 3.82167 9.51982 3.49567 8.3478L2.48691 3.24347L7.79091 8.12316H6.01572C5.58942 8.12316 5.24384 8.44109 5.24384 8.83328C5.24384 9.22548 5.58943 9.54341 6.01572 9.54341L9.33467 9.54341L11.0275 11.1008ZM8.88251 7.11888L3.57851 2.23919L9.15638 3.17222C10.5171 3.39314 12.1099 4.25833 12.8641 5.54284C13.2317 6.1689 13.4066 6.90208 13.2613 7.74201C13.1421 8.43145 12.8016 9.22226 12.1262 10.1031L10.4263 8.53914V5.48571C10.4263 5.09351 10.0807 4.77558 9.65439 4.77558C9.22809 4.77558 8.88251 5.09351 8.88251 5.48571V7.11888Z" fill="#CECECE"/>
<path fill-rule="evenodd" clip-rule="evenodd" d="M26.2735 21.6634C25.5702 21.0163 24.4298 21.0163 23.7265 21.6634C23.0231 22.3105 23.0231 23.3596 23.7265 24.0067C24.4298 24.6538 25.5702 24.6538 26.2735 24.0067C26.9769 23.3596 26.9769 22.3105 26.2735 21.6634ZM22.6349 20.6591C23.9411 19.4574 26.0589 19.4574 27.3651 20.6591C28.6714 21.8609 28.6714 23.8093 27.3651 25.011C26.0589 26.2127 23.9411 26.2127 22.6349 25.011C21.3286 23.8093 21.3286 21.8609 22.6349 20.6591Z" fill="#CECECE"/>
<path fill-rule="evenodd" clip-rule="evenodd" d="M29.5483 18.6506C29.8498 18.928 29.8498 19.3776 29.5483 19.6549L27.3651 21.6635C27.0637 21.9408 26.575 21.9407 26.2735 21.6634C25.9721 21.3861 25.9721 20.9365 26.2735 20.6592L28.4567 18.6506C28.7582 18.3733 29.2469 18.3733 29.5483 18.6506Z" fill="#CECECE"/>
<path fill-rule="evenodd" clip-rule="evenodd" d="M23.7265 24.0067C24.0279 24.284 24.0279 24.7337 23.7265 25.011L21.5433 27.0196C21.2418 27.2969 20.7531 27.2969 20.4517 27.0196C20.1502 26.7423 20.1502 26.2926 20.4517 26.0153L22.6349 24.0068C22.9363 23.7294 23.425 23.7294 23.7265 24.0067Z" fill="#CECECE"/>
<path fill-rule="evenodd" clip-rule="evenodd" d="M26.2735 24.0067C26.575 23.7294 27.0637 23.7294 27.3651 24.0068L29.5483 26.0153C29.8498 26.2926 29.8498 26.7423 29.5483 27.0196C29.2469 27.2969 28.7582 27.2969 28.4567 27.0196L26.2735 25.011C25.9721 24.7337 25.9721 24.284 26.2735 24.0067Z" fill="#CECECE"/>
<path fill-rule="evenodd" clip-rule="evenodd" d="M20.4517 18.6506C20.7531 18.3733 21.2418 18.3733 21.5433 18.6506L23.7265 20.6592C24.0279 20.9365 24.0279 21.3861 23.7265 21.6634C23.425 21.9407 22.9363 21.9408 22.6349 21.6635L20.4517 19.6549C20.1502 19.3776 20.1502 18.928 20.4517 18.6506Z" fill="#CECECE"/>
<path fill-rule="evenodd" clip-rule="evenodd" d="M29.2055 24.7128C28.3366 24.5323 27.7147 24.6894 27.3651 25.011C27.0156 25.3326 26.8447 25.9048 27.0409 26.7042C27.2346 27.4931 27.7711 28.3973 28.6387 29.1955C29.5062 29.9936 30.4891 30.4872 31.3466 30.6654C32.2155 30.8459 32.8374 30.6887 33.187 30.3671C33.5365 30.0456 33.7074 29.4734 33.5112 28.674C33.3175 27.885 32.781 26.9808 31.9135 26.1827C31.0459 25.3845 30.0631 24.8909 29.2055 24.7128ZM29.5456 23.3274C30.7293 23.5733 31.9635 24.2202 33.0051 25.1784C34.0466 26.1366 34.7497 27.2721 35.017 28.3611C35.2817 29.4397 35.1348 30.5837 34.2786 31.3714C33.4224 32.1591 32.1789 32.2943 31.0066 32.0508C29.8228 31.8049 28.5886 31.158 27.5471 30.1998C26.5055 29.2415 25.8024 28.106 25.5351 27.017C25.2704 25.9384 25.4173 24.7944 26.2735 24.0067C27.1297 23.219 28.3732 23.0838 29.5456 23.3274Z" fill="#CECECE"/>
<path fill-rule="evenodd" clip-rule="evenodd" d="M22.959 26.7041C23.1552 25.9047 22.9844 25.3326 22.6349 25.011C22.2853 24.6894 21.6634 24.5322 20.7945 24.7127C19.9369 24.8908 18.9541 25.3844 18.0865 26.1826C17.219 26.9807 16.6824 27.885 16.4888 28.6739C16.2926 29.4733 16.4634 30.0455 16.813 30.3671C17.1625 30.6887 17.7845 30.8458 18.6534 30.6653C19.5109 30.4872 20.4938 29.9936 21.3613 29.1954C22.2289 28.3973 22.7654 27.493 22.959 26.7041ZM24.4649 27.0169C24.1976 28.106 23.4945 29.2415 22.4529 30.1997C21.4114 31.1579 20.1771 31.8048 18.9934 32.0507C17.8211 32.2942 16.5776 32.159 15.7214 31.3713C14.8652 30.5836 14.7182 29.4396 14.983 28.3611C15.2503 27.272 15.9534 26.1365 16.9949 25.1783C18.0365 24.2201 19.2707 23.5732 20.4544 23.3273C21.6268 23.0838 22.8703 23.219 23.7265 24.0067C24.5827 24.7944 24.7296 25.9384 24.4649 27.0169Z" fill="#CECECE"/>
<path fill-rule="evenodd" clip-rule="evenodd" d="M33.5112 16.9961C33.7074 16.1967 33.5365 15.6246 33.187 15.303C32.8374 14.9814 32.2155 14.8242 31.3466 15.0047C30.4891 15.1829 29.5062 15.6765 28.6387 16.4746C27.7711 17.2728 27.2346 18.177 27.0409 18.9659C26.8447 19.7653 27.0156 20.3376 27.3651 20.6591C27.7147 20.9807 28.3366 21.1378 29.2055 20.9573C30.063 20.7792 31.0459 20.2856 31.9135 19.4874C32.781 18.6893 33.3175 17.7851 33.5112 16.9961ZM35.017 17.309C34.7497 18.398 34.0466 19.5335 33.0051 20.4917C31.9635 21.4499 30.7293 22.0968 29.5455 22.3427C28.3732 22.5863 27.1297 22.4511 26.2735 21.6634C25.4173 20.8757 25.2704 19.7317 25.5351 18.6531C25.8024 17.5641 26.5055 16.4286 27.5471 15.4703C28.5886 14.5121 29.8228 13.8653 31.0066 13.6193C32.1789 13.3758 33.4224 13.511 34.2786 14.2987C35.1348 15.0864 35.2817 16.2304 35.017 17.309Z" fill="#CECECE"/>
<path fill-rule="evenodd" clip-rule="evenodd" d="M18.6534 15.0048C17.7845 14.8243 17.1626 14.9815 16.813 15.303C16.4635 15.6246 16.2926 16.1968 16.4888 16.9962C16.6825 17.7851 17.219 18.6894 18.0865 19.4875C18.9541 20.2857 19.937 20.7793 20.7945 20.9574C21.6634 21.1379 22.2853 20.9807 22.6349 20.6591C22.9844 20.3376 23.1553 19.7654 22.9591 18.966C22.7654 18.1771 22.2289 17.2728 21.3613 16.4747C20.4938 15.6765 19.5109 15.1829 18.6534 15.0048ZM18.9934 13.6194C20.1772 13.8653 21.4114 14.5122 22.4529 15.4704C23.4945 16.4286 24.1976 17.5641 24.4649 18.6532C24.7296 19.7317 24.5827 20.8757 23.7265 21.6634C22.8703 22.4511 21.6268 22.5863 20.4545 22.3428C19.2707 22.0969 18.0365 21.45 16.9949 20.4918C15.9534 19.5336 15.2503 18.3981 14.983 17.309C14.7183 16.2305 14.8652 15.0865 15.7214 14.2988C16.5776 13.5111 17.8211 13.3759 18.9934 13.6194Z" fill="#CECECE"/>
<path fill-rule="evenodd" clip-rule="evenodd" d="M25.7651 2.137C25.4336 1.52711 25.1185 1.42026 25 1.42026C24.8815 1.42026 24.5664 1.52711 24.2349 2.137C23.9266 2.70441 23.7135 3.53797 23.7135 4.49748C23.7135 5.45699 23.9266 6.29055 24.2349 6.85796C24.5664 7.46785 24.8815 7.5747 25 7.5747C25.1185 7.5747 25.4336 7.46785 25.7651 6.85796C26.0735 6.29055 26.2865 5.45699 26.2865 4.49748C26.2865 3.53797 26.0735 2.70441 25.7651 2.137ZM27.1459 1.50184C27.5825 2.30518 27.8302 3.36529 27.8302 4.49748C27.8302 5.62967 27.5825 6.68978 27.1459 7.49312C26.7323 8.25399 26.0183 8.99496 25 8.99496C23.9817 8.99496 23.2677 8.25399 22.8541 7.49312C22.4176 6.68978 22.1698 5.62967 22.1698 4.49748C22.1698 3.36529 22.4176 2.30518 22.8541 1.50184C23.2677 0.740973 23.9817 -4.09491e-08 25 0C26.0183 4.09491e-08 26.7323 0.740973 27.1459 1.50184Z" fill="#CECECE"/>
<path fill-rule="evenodd" clip-rule="evenodd" d="M26.7408 14.6775C26.7404 13.7976 25.9646 13.0839 25.0082 13.0835C24.0523 13.0831 23.2779 13.7956 23.2783 14.675L23.2792 16.5173C23.2793 16.9095 22.9339 17.2275 22.5076 17.2277C22.0813 17.2279 21.7356 16.9101 21.7354 16.5179L21.7346 14.6756C21.7338 13.0113 23.1998 11.6625 25.0088 11.6632C26.8173 11.6639 28.2838 13.0131 28.2845 14.6769L28.2854 16.4833C28.2855 16.8755 27.9401 17.1936 27.5138 17.1938C27.0875 17.1939 26.7418 16.8761 26.7416 16.4839L26.7408 14.6775Z" fill="#CECECE"/>
<path fill-rule="evenodd" clip-rule="evenodd" d="M2.32282 23.7038C1.6599 23.3989 1.54376 23.109 1.54376 23C1.54376 22.8909 1.6599 22.601 2.32282 22.2961C2.93957 22.0124 3.84562 21.8164 4.88856 21.8164C5.9315 21.8164 6.83755 22.0124 7.4543 22.2961C8.11722 22.601 8.23336 22.8909 8.23336 23C8.23336 23.109 8.11722 23.3989 7.4543 23.7038C6.83755 23.9876 5.9315 24.1835 4.88856 24.1835C3.84562 24.1835 2.93957 23.9876 2.32282 23.7038ZM1.63243 24.9742C2.50563 25.3758 3.65792 25.6038 4.88856 25.6038C6.1192 25.6038 7.27149 25.3758 8.14469 24.9742C8.97171 24.5937 9.77712 23.9368 9.77712 23C9.77712 22.0632 8.97171 21.4062 8.14469 21.0258C7.27149 20.6241 6.1192 20.3962 4.88856 20.3962C3.65792 20.3962 2.50563 20.6241 1.63243 21.0258C0.805405 21.4062 0 22.0632 0 23C0 23.9368 0.805405 24.5937 1.63243 24.9742Z" fill="#CECECE"/>
<path fill-rule="evenodd" clip-rule="evenodd" d="M15.9538 24.6015C14.9974 24.6011 14.2216 23.8874 14.2212 23.0075C14.2208 22.1281 14.9952 21.4157 15.951 21.416L17.9535 21.4168C18.3798 21.417 18.7255 21.0992 18.7257 20.707C18.7259 20.3148 18.3805 19.9967 17.9542 19.9965L15.9517 19.9958C14.1427 19.9951 12.6767 21.3438 12.6774 23.0081C12.6782 24.6719 14.1447 26.0211 15.9531 26.0218L17.9166 26.0225C18.3429 26.0227 18.6887 25.7049 18.6888 25.3127C18.689 24.9205 18.3436 24.6024 17.9173 24.6023L15.9538 24.6015Z" fill="#CECECE"/>
<path fill-rule="evenodd" clip-rule="evenodd" d="M47.6772 22.2962C48.3401 22.6011 48.4562 22.891 48.4562 23C48.4562 23.1091 48.3401 23.399 47.6772 23.7039C47.0604 23.9876 46.1544 24.1836 45.1114 24.1836C44.0685 24.1836 43.1625 23.9876 42.5457 23.7039C41.8828 23.399 41.7666 23.1091 41.7666 23C41.7666 22.891 41.8828 22.6011 42.5457 22.2962C43.1625 22.0124 44.0685 21.8165 45.1114 21.8165C46.1544 21.8165 47.0604 22.0124 47.6772 22.2962ZM48.3676 21.0258C47.4944 20.6242 46.3421 20.3962 45.1114 20.3962C43.8808 20.3962 42.7285 20.6242 41.8553 21.0258C41.0283 21.4063 40.2229 22.0632 40.2229 23C40.2229 23.9368 41.0283 24.5938 41.8553 24.9742C42.7285 25.3759 43.8808 25.6038 45.1114 25.6038C46.3421 25.6038 47.4944 25.3759 48.3676 24.9742C49.1946 24.5938 50 23.9368 50 23C50 22.0632 49.1946 21.4063 48.3676 21.0258Z" fill="#CECECE"/>
<path fill-rule="evenodd" clip-rule="evenodd" d="M34.0462 21.3985C35.0026 21.3989 35.7784 22.1126 35.7788 22.9925C35.7792 23.8719 35.0048 24.5843 34.049 24.584L32.0465 24.5832C31.6202 24.583 31.2745 24.9008 31.2743 25.293C31.2741 25.6852 31.6195 26.0033 32.0458 26.0035L34.0483 26.0042C35.8573 26.0049 37.3233 24.6562 37.3226 22.9919C37.3218 21.3281 35.8553 19.9789 34.0469 19.9782L32.0834 19.9775C31.6571 19.9773 31.3113 20.2951 31.3112 20.6873C31.311 21.0795 31.6564 21.3976 32.0827 21.3977L34.0462 21.3985Z" fill="#CECECE"/>
<path fill-rule="evenodd" clip-rule="evenodd" d="M24.2349 43.863C24.5664 44.4729 24.8815 44.5797 25 44.5797C25.1185 44.5797 25.4336 44.4729 25.7651 43.863C26.0734 43.2956 26.2865 42.462 26.2865 41.5025C26.2865 40.543 26.0734 39.7094 25.7651 39.142C25.4336 38.5322 25.1185 38.4253 25 38.4253C24.8815 38.4253 24.5664 38.5322 24.2349 39.142C23.9265 39.7094 23.7135 40.543 23.7135 41.5025C23.7135 42.462 23.9265 43.2956 24.2349 43.863ZM22.8541 44.4982C22.4175 43.6948 22.1698 42.6347 22.1698 41.5025C22.1698 40.3703 22.4175 39.3102 22.8541 38.5069C23.2677 37.746 23.9817 37.005 25 37.005C26.0183 37.005 26.7323 37.746 27.1458 38.5069C27.5824 39.3102 27.8302 40.3703 27.8302 41.5025C27.8302 42.6347 27.5824 43.6948 27.1458 44.4982C26.7323 45.259 26.0183 46 25 46C23.9817 46 23.2677 45.259 22.8541 44.4982Z" fill="#CECECE"/>
<path fill-rule="evenodd" clip-rule="evenodd" d="M23.2592 31.3225C23.2596 32.2024 24.0354 32.9161 24.9918 32.9165C25.9477 32.9169 26.7221 32.2044 26.7217 31.325L26.7208 29.4827C26.7207 29.0905 27.0661 28.7725 27.4924 28.7723C27.9187 28.7721 28.2644 29.0899 28.2646 29.4821L28.2654 31.3244C28.2662 32.9887 26.8002 34.3375 24.9912 34.3368C23.1827 34.3361 21.7162 32.9869 21.7155 31.3231L21.7146 29.5167C21.7145 29.1245 22.0599 28.8064 22.4862 28.8062C22.9125 28.8061 23.2582 29.1239 23.2584 29.5161L23.2592 31.3225Z" fill="#CECECE"/>
</svg>
