<svg xmlns="http://www.w3.org/2000/svg" width="25" height="24" viewBox="0 0 25 24" fill="none">
  <g clip-path="url(#clip0_356_451)">
    <path d="M8.91602 11C10.2421 11 11.5139 10.4732 12.4515 9.53553C13.3892 8.59785 13.916 7.32608 13.916 6C13.916 4.67392 13.3892 3.40215 12.4515 2.46447C11.5139 1.52678 10.2421 1 8.91602 1C7.58993 1 6.31816 1.52678 5.38048 2.46447C4.4428 3.40215 3.91602 4.67392 3.91602 6C3.91602 7.32608 4.4428 8.59785 5.38048 9.53553C6.31816 10.4732 7.58993 11 8.91602 11ZM8.91602 11C10.929 11 12.688 11.76 13.939 13.023C14.6809 13.7749 15.2358 14.6904 15.559 15.696M8.91602 11C4.91602 11 1.91602 14 1.91602 18V23H11.916M12.916 18.824L17.106 22L23.916 13" stroke="#0B6C61" stroke-width="2"/>
  </g>
  <defs>
    <clipPath id="clip0_356_451">
      <rect width="24" height="24" fill="white" transform="translate(0.916016)"/>
    </clipPath>
  </defs>
</svg>