<svg width="32" height="29" viewBox="0 0 32 29" fill="none" xmlns="http://www.w3.org/2000/svg">
<path d="M31.1111 3.7286C31.6022 3.7286 32 3.32771 32 2.83276V1.0411C32 0.546149 31.6022 0.145264 31.1111 0.145264H0.888889C0.397778 0.145264 0 0.546149 0 1.0411V2.83276C0 3.32771 0.397778 3.7286 0.888889 3.7286H1.77667V25.2286H0.888889C0.397778 25.2286 0 25.6295 0 26.1244V27.9161C0 28.411 0.397778 28.8119 0.888889 28.8119H14.2222V24.3328C14.2222 23.8401 14.6222 23.4369 15.1111 23.4369H16.8889C17.3778 23.4369 17.7778 23.8401 17.7778 24.3328V28.8119H31.1111C31.6022 28.8119 32 28.411 32 27.9161V26.1244C32 25.6295 31.6022 25.2286 31.1111 25.2286H30.2222V3.7286H31.1111ZM14.2222 6.23693C14.2222 5.8786 14.5778 5.52026 14.9333 5.52026H17.0667C17.4222 5.52026 17.7778 5.8786 17.7778 6.23693V8.38693C17.7778 8.74526 17.4222 9.1036 17.0667 9.1036H14.9333C14.5778 9.1036 14.2222 8.74526 14.2222 8.38693V6.23693ZM14.2222 11.6119C14.2222 11.2536 14.5778 10.8953 14.9333 10.8953H17.0667C17.4222 10.8953 17.7778 11.2536 17.7778 11.6119V13.7619C17.7778 14.1203 17.4222 14.4786 17.0667 14.4786H14.9333C14.5778 14.4786 14.2222 14.1203 14.2222 13.7619V11.6119ZM7.11111 6.23693C7.11111 5.8786 7.46667 5.52026 7.82222 5.52026H9.95556C10.3111 5.52026 10.6667 5.8786 10.6667 6.23693V8.38693C10.6667 8.74526 10.3111 9.1036 9.95556 9.1036H7.82222C7.46667 9.1036 7.11111 8.74526 7.11111 8.38693V6.23693ZM9.95556 14.4786H7.82222C7.46667 14.4786 7.11111 14.1203 7.11111 13.7619V11.6119C7.11111 11.2536 7.46667 10.8953 7.82222 10.8953H9.95556C10.3111 10.8953 10.6667 11.2536 10.6667 11.6119V13.7619C10.6667 14.1203 10.3111 14.4786 9.95556 14.4786ZM10.6667 21.6453C10.6667 18.6767 13.0544 16.2703 16 16.2703C18.9456 16.2703 21.3333 18.6767 21.3333 21.6453H10.6667ZM24.8889 13.7619C24.8889 14.1203 24.5333 14.4786 24.1778 14.4786H22.0444C21.6889 14.4786 21.3333 14.1203 21.3333 13.7619V11.6119C21.3333 11.2536 21.6889 10.8953 22.0444 10.8953H24.1778C24.5333 10.8953 24.8889 11.2536 24.8889 11.6119V13.7619ZM24.8889 8.38693C24.8889 8.74526 24.5333 9.1036 24.1778 9.1036H22.0444C21.6889 9.1036 21.3333 8.74526 21.3333 8.38693V6.23693C21.3333 5.8786 21.6889 5.52026 22.0444 5.52026H24.1778C24.5333 5.52026 24.8889 5.8786 24.8889 6.23693V8.38693Z" fill="#232424"/>
</svg>
