<svg width="22" height="18" viewBox="0 0 22 18" fill="none" xmlns="http://www.w3.org/2000/svg">
<path d="M20.75 0.895264H1.25C0.835156 0.895264 0.5 1.23042 0.5 1.64526V16.6453C0.5 17.0601 0.835156 17.3953 1.25 17.3953H20.75C21.1648 17.3953 21.5 17.0601 21.5 16.6453V1.64526C21.5 1.23042 21.1648 0.895264 20.75 0.895264ZM18.8563 3.44761L11.4617 9.20151C11.2789 9.34448 11.0234 9.34448 10.8406 9.20151L3.44375 3.44761C3.41587 3.42609 3.39541 3.39638 3.38526 3.36266C3.37511 3.32893 3.37576 3.29287 3.38713 3.25954C3.3985 3.2262 3.42002 3.19726 3.44867 3.17677C3.47731 3.15627 3.51165 3.14526 3.54688 3.14526H18.7531C18.7883 3.14526 18.8227 3.15627 18.8513 3.17677C18.88 3.19726 18.9015 3.2262 18.9129 3.25954C18.9242 3.29287 18.9249 3.32893 18.9147 3.36266C18.9046 3.39638 18.8841 3.42609 18.8563 3.44761Z" fill="white"/>
</svg>
