<svg width="27" height="27" viewBox="0 0 27 27" fill="none" xmlns="http://www.w3.org/2000/svg">
<path d="M17.817 4.89535C17.817 5.97831 17.3868 7.01692 16.621 7.7827C15.8552 8.54847 14.8166 8.97868 13.7337 8.97868C12.6507 8.97868 11.6121 8.54847 10.8463 7.7827C10.0805 7.01692 9.65033 5.97831 9.65033 4.89535C9.65033 3.81238 10.0805 2.77377 10.8463 2.00799C11.6121 1.24222 12.6507 0.812012 13.7337 0.812012C14.8166 0.812012 15.8552 1.24222 16.621 2.00799C17.3868 2.77377 17.817 3.81238 17.817 4.89535ZM25.9837 5.71201C25.9837 6.57839 25.6395 7.40928 25.0269 8.02189C24.4143 8.63451 23.5834 8.97868 22.717 8.97868C21.8506 8.97868 21.0197 8.63451 20.4071 8.02189C19.7945 7.40928 19.4503 6.57839 19.4503 5.71201C19.4503 4.84564 19.7945 4.01475 20.4071 3.40213C21.0197 2.78951 21.8506 2.44535 22.717 2.44535C23.5834 2.44535 24.4143 2.78951 25.0269 3.40213C25.6395 4.01475 25.9837 4.84564 25.9837 5.71201ZM4.75033 8.97868C5.6167 8.97868 6.44759 8.63451 7.06021 8.02189C7.67283 7.40928 8.01699 6.57839 8.01699 5.71201C8.01699 4.84564 7.67283 4.01475 7.06021 3.40213C6.44759 2.78951 5.6167 2.44535 4.75033 2.44535C3.88395 2.44535 3.05306 2.78951 2.44044 3.40213C1.82782 4.01475 1.48366 4.84564 1.48366 5.71201C1.48366 6.57839 1.82782 7.40928 2.44044 8.02189C3.05306 8.63451 3.88395 8.97868 4.75033 8.97868ZM7.20033 12.6537C7.20033 11.5267 8.11499 10.612 9.24199 10.612H18.2253C19.3523 10.612 20.267 11.5267 20.267 12.6537V20.412C20.267 22.1448 19.5787 23.8065 18.3534 25.0318C17.1282 26.257 15.4664 26.9453 13.7337 26.9453C12.0009 26.9453 10.3391 26.257 9.11389 25.0318C7.88866 23.8065 7.20033 22.1448 7.20033 20.412V12.6537ZM5.56699 12.6537C5.56699 11.8974 5.79566 11.1967 6.18603 10.612H2.70866C1.58166 10.612 0.666992 11.5267 0.666992 12.6537V18.7787C0.666916 19.4779 0.816505 20.1691 1.10571 20.8058C1.39491 21.4424 1.81703 22.0098 2.3437 22.4698C2.87037 22.9298 3.48939 23.2717 4.15917 23.4726C4.82895 23.6735 5.53397 23.7287 6.22686 23.6346C5.79061 22.6163 5.5661 21.5198 5.56699 20.412V12.6537ZM21.9003 20.412C21.9003 21.5553 21.6651 22.6464 21.2405 23.6346C21.4561 23.664 21.676 23.6787 21.9003 23.6787C23.1999 23.6787 24.4462 23.1624 25.3652 22.2435C26.2841 21.3246 26.8003 20.0782 26.8003 18.7787V12.6537C26.8003 11.5267 25.8857 10.612 24.7587 10.612H21.2813C21.6733 11.1967 21.9003 11.8974 21.9003 12.6537V20.412Z" fill="#232424"/>
</svg>
