<svg width="24" height="25" viewBox="0 0 24 25" fill="none" xmlns="http://www.w3.org/2000/svg">
<path d="M20.7563 5.54058L18.2602 3.04683C18.0841 2.86998 17.8748 2.72966 17.6443 2.63393C17.4139 2.5382 17.1667 2.48895 16.9172 2.48901C16.4086 2.48901 15.9305 2.68823 15.5719 3.04683L12.8859 5.73276C12.7091 5.90884 12.5688 6.11812 12.473 6.34859C12.3773 6.57906 12.3281 6.82617 12.3281 7.07573C12.3281 7.58433 12.5273 8.06245 12.8859 8.42105L14.85 10.3851C14.3903 11.3985 13.7511 12.3203 12.9633 13.1062C12.1775 13.8959 11.2557 14.5374 10.2422 15L8.27813 13.0359C8.10205 12.859 7.89277 12.7187 7.6623 12.623C7.43183 12.5273 7.18472 12.478 6.93516 12.4781C6.42656 12.4781 5.94844 12.6773 5.58985 13.0359L2.90156 15.7195C2.7245 15.8959 2.58406 16.1056 2.48832 16.3364C2.39259 16.5673 2.34346 16.8149 2.34375 17.0648C2.34375 17.5734 2.54297 18.0515 2.90156 18.4101L5.39297 20.9015C5.96485 21.4757 6.75469 21.8015 7.56563 21.8015C7.73672 21.8015 7.90078 21.7875 8.0625 21.7593C11.2219 21.239 14.3555 19.5585 16.8844 17.032C19.4109 14.5078 21.0891 11.3765 21.6164 8.20776C21.7758 7.23979 21.4547 6.2437 20.7563 5.54058Z" fill="white"/>
</svg>
