<svg width="26" height="26" viewBox="0 0 26 26" fill="none" xmlns="http://www.w3.org/2000/svg">
<path d="M0 2.6786C0 1.28526 1.14 0.145264 2.53333 0.145264H22.8C23.4719 0.145264 24.1162 0.412168 24.5913 0.88726C25.0664 1.36235 25.3333 2.00672 25.3333 2.6786V5.21193H0V2.6786ZM1.26667 6.4786H24.0667V22.9453C24.0667 23.6171 23.7998 24.2615 23.3247 24.7366C22.8496 25.2117 22.2052 25.4786 21.5333 25.4786H3.8C3.12812 25.4786 2.48375 25.2117 2.00866 24.7366C1.53357 24.2615 1.26667 23.6171 1.26667 22.9453V6.4786ZM8.86667 9.01193V11.5453H16.4667V9.01193H8.86667Z" fill="#232424"/>
</svg>
