<svg width="29" height="29" viewBox="0 0 29 29" fill="none" xmlns="http://www.w3.org/2000/svg">
<path d="M9.23062 21.8612L7.54078 20.1713C7.07593 19.7065 6.91187 19.0338 7.11968 18.4104C7.28374 17.9237 7.50249 17.2893 7.765 16.562H1.97906C1.50874 16.562 1.07124 16.3104 0.836088 15.9002C0.600932 15.4901 0.606401 14.987 0.847026 14.5823L3.71812 9.74243C4.42906 8.54477 5.71421 7.81196 7.10328 7.81196H11.6041C11.7353 7.59321 11.8666 7.39086 11.9978 7.19399C16.4767 0.587738 23.1486 0.368989 27.1298 1.1018C27.7642 1.21665 28.2564 1.7143 28.3767 2.34868C29.1095 6.33539 28.8853 13.0018 22.2845 17.4807C22.0931 17.612 21.8853 17.7432 21.6666 17.8745V22.3752C21.6666 23.7643 20.9337 25.0549 19.7361 25.7604L14.8962 28.6315C14.4916 28.8721 13.9884 28.8776 13.5783 28.6424C13.1681 28.4073 12.9166 27.9752 12.9166 27.4995V21.637C12.1455 21.9049 11.4728 22.1237 10.9642 22.2877C10.3517 22.4846 9.68453 22.3151 9.22515 21.8612H9.23062ZM21.6666 9.99946C22.2467 9.99946 22.8031 9.76899 23.2134 9.35875C23.6236 8.94852 23.8541 8.39212 23.8541 7.81196C23.8541 7.2318 23.6236 6.6754 23.2134 6.26516C22.8031 5.85493 22.2467 5.62446 21.6666 5.62446C21.0864 5.62446 20.53 5.85493 20.1198 6.26516C19.7095 6.6754 19.4791 7.2318 19.4791 7.81196C19.4791 8.39212 19.7095 8.94852 20.1198 9.35875C20.53 9.76899 21.0864 9.99946 21.6666 9.99946Z" fill="#232424"/>
</svg>
