<svg width="32" height="29" viewBox="0 0 32 29" fill="none" xmlns="http://www.w3.org/2000/svg">
<path d="M0 1.45776C0 0.73042 0.599528 0.145264 1.34474 0.145264H3.89413C5.12681 0.145264 6.21941 0.845264 6.72929 1.89526H29.7579C31.2315 1.89526 32.3073 3.26245 31.9207 4.65151L29.6234 12.9804C29.1472 14.6976 27.5503 15.8953 25.7293 15.8953H9.56444L9.86701 17.4539C9.99027 18.0718 10.545 18.5203 11.1893 18.5203H27.343C28.0882 18.5203 28.6877 19.1054 28.6877 19.8328C28.6877 20.5601 28.0882 21.1453 27.343 21.1453H11.1893C9.25067 21.1453 7.58656 19.8 7.22796 17.946L4.33678 3.12573C4.29755 2.91792 4.11265 2.77026 3.89413 2.77026H1.34474C0.599528 2.77026 0 2.18511 0 1.45776ZM7.17193 25.5203C7.17193 25.1755 7.24149 24.8342 7.37665 24.5157C7.51181 24.1972 7.70992 23.9079 7.95966 23.6641C8.2094 23.4204 8.50588 23.227 8.83219 23.0951C9.15849 22.9632 9.50822 22.8953 9.8614 22.8953C10.2146 22.8953 10.5643 22.9632 10.8906 23.0951C11.2169 23.227 11.5134 23.4204 11.7631 23.6641C12.0129 23.9079 12.211 24.1972 12.3462 24.5157C12.4813 24.8342 12.5509 25.1755 12.5509 25.5203C12.5509 25.865 12.4813 26.2063 12.3462 26.5248C12.211 26.8433 12.0129 27.1327 11.7631 27.3764C11.5134 27.6202 11.2169 27.8135 10.8906 27.9454C10.5643 28.0774 10.2146 28.1453 9.8614 28.1453C9.50822 28.1453 9.15849 28.0774 8.83219 27.9454C8.50588 27.8135 8.2094 27.6202 7.95966 27.3764C7.70992 27.1327 7.51181 26.8433 7.37665 26.5248C7.24149 26.2063 7.17193 25.865 7.17193 25.5203ZM25.9982 22.8953C26.7115 22.8953 27.3956 23.1718 27.9 23.6641C28.4044 24.1564 28.6877 24.8241 28.6877 25.5203C28.6877 26.2165 28.4044 26.8841 27.9 27.3764C27.3956 27.8687 26.7115 28.1453 25.9982 28.1453C25.285 28.1453 24.6009 27.8687 24.0965 27.3764C23.5921 26.8841 23.3088 26.2165 23.3088 25.5203C23.3088 24.8241 23.5921 24.1564 24.0965 23.6641C24.6009 23.1718 25.285 22.8953 25.9982 22.8953Z" fill="#232424"/>
</svg>
