<svg width="36" height="37" viewBox="0 0 36 37" fill="none" xmlns="http://www.w3.org/2000/svg">
<path d="M27.5781 14.0657L24.6852 4.24135C24.6203 4.02124 24.486 3.82801 24.3023 3.69053C24.1186 3.55305 23.8954 3.4787 23.6659 3.47858H10.938C10.7086 3.4787 10.4853 3.55305 10.3016 3.69053C10.1179 3.82801 9.98358 4.02124 9.91876 4.24135L7.02582 14.0657C6.57193 15.5715 6.54817 17.1742 6.95723 18.6928C7.3663 20.2114 8.19187 21.5854 9.3407 22.6595C11.2305 24.4316 13.6586 25.521 16.2389 25.7544V31.1191H11.9865C11.7045 31.1191 11.4341 31.2311 11.2348 31.4304C11.0354 31.6298 10.9234 31.9002 10.9234 32.1821C10.9234 32.4641 11.0354 32.7345 11.2348 32.9339C11.4341 33.1332 11.7045 33.2452 11.9865 33.2452H22.6174C22.8994 33.2452 23.1698 33.1332 23.3692 32.9339C23.5685 32.7345 23.6805 32.4641 23.6805 32.1821C23.6805 31.9002 23.5685 31.6298 23.3692 31.4304C23.1698 31.2311 22.8994 31.1191 22.6174 31.1191H18.3651V25.7544C20.9453 25.521 23.3734 24.4316 25.2632 22.6595C26.4118 21.5852 27.2372 20.2112 27.6462 18.6927C28.0553 17.1742 28.0317 15.5715 27.5781 14.0657ZM11.7327 5.60477H22.8712L25.5409 14.6663C25.5529 14.7062 25.5635 14.7461 25.5742 14.7859C22.7277 15.8065 19.5225 14.5733 17.783 13.6923C14.4356 11.998 11.7779 11.7827 9.81777 12.1069L11.7327 5.60477Z" fill="#232424"/>
</svg>
