<svg xmlns="http://www.w3.org/2000/svg" width="16" height="18" viewBox="0 0 16 18" fill="none">
  <path d="M7.05664 14.3244V16.2H5.17086V18H10.8282V16.2H8.94242V14.3244C11.9238 13.9626 14.4574 11.9304 15.272 9.1107C15.521 8.2539 15.5662 7.2837 15.4069 6.2253L14.5903 0.7722C14.5581 0.557821 14.446 0.361721 14.2745 0.21988C14.1031 0.078039 13.8838 -2.88702e-05 13.6569 8.00889e-09H2.34219C2.1153 -2.88702e-05 1.896 0.078039 1.72454 0.21988C1.55308 0.361721 1.44095 0.557821 1.40873 0.7722L0.593131 6.2244C0.433783 7.2837 0.479042 8.2539 0.727965 9.1098C1.54168 11.9304 4.07522 13.9626 7.05664 14.3244ZM12.8394 1.8L13.3768 5.4H2.62129L3.15968 1.8H12.8394Z" fill="white"/>
</svg>