<svg xmlns="http://www.w3.org/2000/svg" width="25" height="24" viewBox="0 0 25 24" fill="none">
  <g clip-path="url(#clip0_356_10)">
    <path d="M19.916 7H24.916V9H19.916V7ZM17.916 12H24.916V14H17.916V12ZM20.916 17H24.916V19H20.916V17ZM2.91602 22C2.91602 19.8783 3.75887 17.8434 5.25916 16.3431C6.75945 14.8429 8.79428 14 10.916 14C13.0377 14 15.0726 14.8429 16.5729 16.3431C18.0732 17.8434 18.916 19.8783 18.916 22H16.916C16.916 20.4087 16.2839 18.8826 15.1587 17.7574C14.0334 16.6321 12.5073 16 10.916 16C9.32472 16 7.79859 16.6321 6.67338 17.7574C5.54816 18.8826 4.91602 20.4087 4.91602 22H2.91602ZM10.916 13C7.60102 13 4.91602 10.315 4.91602 7C4.91602 3.685 7.60102 1 10.916 1C14.231 1 16.916 3.685 16.916 7C16.916 10.315 14.231 13 10.916 13ZM10.916 11C13.126 11 14.916 9.21 14.916 7C14.916 4.79 13.126 3 10.916 3C8.70602 3 6.91602 4.79 6.91602 7C6.91602 9.21 8.70602 11 10.916 11Z" fill="#0B6C61"/>
  </g>
  <defs>
    <clipPath id="clip0_356_10">
      <rect width="24" height="24" fill="white" transform="translate(0.916016)"/>
    </clipPath>
  </defs>
</svg>