<svg width="165" height="14" viewBox="0 0 165 14" fill="none" xmlns="http://www.w3.org/2000/svg">
<g clip-path="url(#clip0_1568_255)">
<path d="M8.54898 12.248C7.60061 13.1234 6.41515 13.5611 4.9926 13.5611C3.57005 13.5611 2.38003 13.1234 1.42255 12.248C0.474183 11.3635 0 10.2282 0 8.8421C0 7.456 0.474183 6.32526 1.42255 5.44985C2.38003 4.56531 3.57005 4.12305 4.9926 4.12305C6.41515 4.12305 7.60061 4.56531 8.54898 5.44985C9.50646 6.32526 9.9852 7.456 9.9852 8.8421C9.9852 10.2282 9.50646 11.3635 8.54898 12.248ZM3.40591 10.4698C3.81626 10.9075 4.34516 11.1264 4.9926 11.1264C5.64004 11.1264 6.16438 10.9075 6.56561 10.4698C6.97596 10.0321 7.18114 9.4895 7.18114 8.8421C7.18114 8.1946 6.97596 7.6521 6.56561 7.2144C6.16438 6.77665 5.64004 6.5578 4.9926 6.5578C4.34516 6.5578 3.81626 6.77665 3.40591 7.2144C3.00468 7.6521 2.80406 8.1946 2.80406 8.8421C2.80406 9.4895 3.00468 10.0321 3.40591 10.4698Z" fill="white"/>
<path d="M13.7279 13.397H10.9649V4.27351H15.8344C16.8648 4.27351 17.6673 4.57443 18.2418 5.17628C18.8254 5.76901 19.1172 6.5122 19.1172 7.4059C19.1172 8.2904 18.8254 9.0336 18.2418 9.6354C17.6673 10.2282 16.8648 10.5245 15.8344 10.5245H13.7279V13.397ZM15.4788 8.1171C15.725 8.1171 15.9256 8.0579 16.0806 7.9393C16.2356 7.8116 16.3132 7.6338 16.3132 7.4059C16.3132 7.1688 16.2356 6.99094 16.0806 6.8724C15.9256 6.74473 15.725 6.6809 15.4788 6.6809H13.7279V8.1171H15.4788Z" fill="white"/>
<path d="M26.9427 13.397H20.0215V4.27351H26.9427V6.6809H22.7845V7.5837H26.847V9.9911H22.7845V10.9896H26.9427V13.397Z" fill="white"/>
<path d="M36.9512 13.397H34.2976L30.9328 8.7737V13.397H28.1697V4.27351H31.0148L34.1882 8.5959V4.27351H36.9512V13.397Z" fill="white"/>
<path d="M48.1033 13.397H45.3402V6.6809H42.8918V4.27351H50.538V6.6809H48.1033V13.397Z" fill="white"/>
<path d="M58.4404 13.397H51.5191V4.27351H58.4404V6.6809H54.2821V7.5837H58.3446V9.9911H54.2821V10.9896H58.4404V13.397Z" fill="white"/>
<path d="M64.1949 13.5611C62.7541 13.5611 61.555 13.1234 60.5975 12.248C59.6491 11.3635 59.1749 10.2282 59.1749 8.8421C59.1749 7.4469 59.6491 6.31158 60.5975 5.43617C61.5459 4.56075 62.745 4.12305 64.1949 4.12305C65.2892 4.12305 66.1691 4.37838 66.8348 4.88904C67.5096 5.39969 68.0112 6.0289 68.3394 6.77665L65.9594 7.8846C65.8409 7.5198 65.6174 7.2098 65.2892 6.95447C64.9609 6.69002 64.5961 6.5578 64.1949 6.5578C63.5383 6.5578 63.0049 6.77665 62.5945 7.2144C62.1842 7.6521 61.979 8.1946 61.979 8.8421C61.979 9.4895 62.1842 10.0321 62.5945 10.4698C63.0049 10.9075 63.5383 11.1264 64.1949 11.1264C64.5961 11.1264 64.9609 10.9987 65.2892 10.7434C65.6174 10.4789 65.8409 10.1643 65.9594 9.7996L68.3394 10.8938C68.1935 11.2312 68.0112 11.5458 67.7923 11.8376C67.5735 12.1203 67.2999 12.3985 66.9716 12.672C66.6433 12.9456 66.2375 13.1644 65.7542 13.3286C65.28 13.4836 64.7603 13.5611 64.1949 13.5611Z" fill="white"/>
<path d="M78 13.397H75.237V9.909H71.9678V13.397H69.2048V4.27351H71.9678V7.5016H75.237V4.27351H78V13.397Z" fill="white"/>
<path d="M39.3997 13.6706H37.6899L40.9317 4H42.6415L39.3997 13.6706Z" fill="#47A1CB"/>
<path fill-rule="evenodd" clip-rule="evenodd" d="M90.7869 7.99726C89.6979 7.57203 88.7575 7.20489 88.7575 6.35752C88.7575 5.37898 89.6486 5.02955 90.4829 5.02955C91.9256 5.02955 92.692 5.82711 92.6998 5.83492L92.7734 5.91373L93.419 4.82993L93.3796 4.78538C93.3424 4.74377 92.4478 3.76438 90.5193 3.76438C88.9835 3.76438 87.3308 4.57578 87.3308 6.35799C87.3308 8.04274 88.8523 8.64539 90.1937 9.17712C91.2844 9.60923 92.2257 9.98249 92.2257 10.822C92.2257 11.7647 91.3506 12.1864 90.4829 12.1864C88.8428 12.1864 87.843 11.1213 87.8331 11.1104L87.7668 11.039L87 12.0552L87.0433 12.105C87.0563 12.1184 87.3477 12.4483 87.9179 12.7809C88.441 13.087 89.3078 13.452 90.4648 13.452C92.3123 13.452 93.6533 12.3457 93.6533 10.822C93.6533 9.1161 92.13 8.52118 90.7869 7.99726ZM103.471 8.56317C103.471 10.5952 101.951 12.1864 100.011 12.1864C98.0723 12.1864 96.5525 10.5952 96.5525 8.56356C96.5525 6.59133 98.0723 5.04773 100.012 5.04773C101.951 5.04773 103.471 6.59133 103.471 8.56356L103.471 8.56317ZM100.011 3.76485C97.2722 3.76485 95.1258 5.87258 95.1258 8.56402C95.1258 11.3048 97.2722 13.4525 100.012 13.4525C102.752 13.4525 104.898 11.3048 104.898 8.56402C104.898 5.87258 102.752 3.76485 100.012 3.76485H100.011ZM110.942 0.336863C110.752 0.310126 110.56 0.297821 110.369 0.300064C109.4 0.300064 107.149 0.636488 107.149 3.75618V4.10817H105.911V5.29978H107.149V13.242H108.538V5.29978H110.865V4.1077H108.538V3.75572C108.538 2.93697 108.793 1.56265 110.495 1.56265C110.735 1.56265 110.911 1.59728 110.913 1.59728L111.009 1.61677V0.348558L110.942 0.336431V0.336863ZM117.499 12.1145L117.399 12.1362C117.265 12.1612 117.13 12.173 116.994 12.1712C116.248 12.1712 114.997 11.8638 114.997 9.80584V5.32531H117.316V4.1108H114.997V1.44055H113.598V4.11033H112.366V5.32484H113.58V9.93399C113.58 13.0017 115.649 13.4598 116.883 13.4598C117.218 13.4598 117.423 13.4235 117.431 13.4217L117.499 13.4095V12.114V12.1145ZM120.326 10.4843C120.326 10.4843 121.341 11.5006 122.846 11.5006C123.499 11.5006 124.06 11.2105 124.06 10.6662C124.06 9.2871 119.564 9.46855 119.564 6.49349C119.564 4.77022 121.105 3.77173 123.099 3.77173C125.185 3.77173 126.2 4.8239 126.2 4.8239L125.348 6.52984C125.348 6.52984 124.496 5.73143 123.082 5.73143C122.483 5.73143 121.903 5.98519 121.903 6.5658C121.903 7.87212 126.4 7.70885 126.4 10.6835C126.4 12.2258 125.058 13.459 122.864 13.459C120.561 13.459 119.273 12.0985 119.273 12.0985L120.326 10.4843ZM134.382 7.47334C134.345 6.22117 133.565 5.5496 132.55 5.5496C131.372 5.5496 130.556 6.27569 130.338 7.47334H134.382ZM132.605 3.77173C135.27 3.77173 136.702 5.71279 136.702 8.16223C136.702 8.43417 136.648 9.05159 136.648 9.05159H130.266C130.411 10.6666 131.662 11.5006 133.04 11.5006C134.527 11.5006 135.705 10.4843 135.705 10.4843L136.594 12.1357C136.594 12.1357 135.179 13.4593 132.877 13.4593C129.812 13.4593 127.908 11.2468 127.908 8.616C127.908 5.76778 129.849 3.77173 132.605 3.77173ZM139.02 3.98999H141.232V5.58642C141.232 5.93059 141.196 6.23934 141.196 6.23934H141.232C141.649 4.91524 142.755 3.86268 144.169 3.86268C144.387 3.86268 144.586 3.89903 144.586 3.89903V6.16703C144.586 6.16703 144.351 6.13067 144.042 6.13067C143.063 6.13067 141.957 6.69265 141.522 8.07174C141.377 8.52504 141.323 9.03295 141.323 9.57721V13.242H139.02V3.98999ZM145.589 3.98999H148.019L149.941 9.72223C150.122 10.267 150.249 10.8818 150.266 10.8818H150.303C150.321 10.8818 150.448 10.267 150.629 9.72223L152.552 3.98953H154.981L151.663 13.242H148.943L145.589 3.98999ZM162.021 7.47334C161.985 6.22117 161.206 5.5496 160.19 5.5496C159.012 5.5496 158.195 6.27569 157.978 7.47334H162.021ZM160.245 3.77173C162.91 3.77173 164.343 5.71279 164.343 8.16223C164.343 8.43417 164.288 9.05159 164.288 9.05159H157.906C158.051 10.6666 159.302 11.5006 160.68 11.5006C162.166 11.5006 163.345 10.4843 163.345 10.4843L164.234 12.1357C164.234 12.1357 162.819 13.4593 160.517 13.4593C157.453 13.4593 155.549 11.2468 155.549 8.616C155.549 5.76778 157.489 3.77173 160.245 3.77173Z" fill="white"/>
<rect x="82" y="4" width="1" height="10" fill="#AFAFAF"/>
</g>
<defs>
<clipPath id="clip0_1568_255">
<rect width="165" height="14" fill="white"/>
</clipPath>
</defs>
</svg>
