<svg width="179" height="150" viewBox="0 0 179 150" fill="none" xmlns="http://www.w3.org/2000/svg">
<circle cx="2.5" cy="2.5" r="2.5" fill="#1F9A7C"/>
<circle cx="31.5" cy="2.5" r="2.5" fill="#1F9A7C"/>
<circle cx="60.5" cy="2.5" r="2.5" fill="#1F9A7C"/>
<circle cx="89.5" cy="2.5" r="2.5" fill="#1F9A7C"/>
<circle cx="118.5" cy="2.5" r="2.5" fill="#1F9A7C"/>
<circle cx="147.5" cy="2.5" r="2.5" fill="#1F9A7C"/>
<circle cx="176.5" cy="2.5" r="2.5" fill="#1F9A7C"/>
<circle cx="2.5" cy="31.5" r="2.5" fill="#1F9A7C"/>
<circle cx="31.5" cy="31.5" r="2.5" fill="#1F9A7C"/>
<circle cx="60.5" cy="31.5" r="2.5" fill="#1F9A7C"/>
<circle cx="89.5" cy="31.5" r="2.5" fill="#1F9A7C"/>
<circle cx="118.5" cy="31.5" r="2.5" fill="#1F9A7C"/>
<circle cx="147.5" cy="31.5" r="2.5" fill="#1F9A7C"/>
<circle cx="176.5" cy="31.5" r="2.5" fill="#1F9A7C"/>
<circle cx="2.5" cy="60.5" r="2.5" fill="#1F9A7C"/>
<circle cx="31.5" cy="60.5" r="2.5" fill="#1F9A7C"/>
<circle cx="60.5" cy="60.5" r="2.5" fill="#1F9A7C"/>
<circle cx="89.5" cy="60.5" r="2.5" fill="#1F9A7C"/>
<circle cx="118.5" cy="60.5" r="2.5" fill="#1F9A7C"/>
<circle cx="147.5" cy="60.5" r="2.5" fill="#1F9A7C"/>
<circle cx="176.5" cy="60.5" r="2.5" fill="#1F9A7C"/>
<circle cx="2.5" cy="89.5" r="2.5" fill="#1F9A7C"/>
<circle cx="31.5" cy="89.5" r="2.5" fill="#1F9A7C"/>
<circle cx="60.5" cy="89.5" r="2.5" fill="#1F9A7C"/>
<circle cx="89.5" cy="89.5" r="2.5" fill="#1F9A7C"/>
<circle cx="118.5" cy="89.5" r="2.5" fill="#1F9A7C"/>
<circle cx="147.5" cy="89.5" r="2.5" fill="#1F9A7C"/>
<circle cx="176.5" cy="89.5" r="2.5" fill="#1F9A7C"/>
<circle cx="2.5" cy="118.5" r="2.5" fill="#1F9A7C"/>
<circle cx="31.5" cy="118.5" r="2.5" fill="#1F9A7C"/>
<circle cx="60.5" cy="118.5" r="2.5" fill="#1F9A7C"/>
<circle cx="89.5" cy="118.5" r="2.5" fill="#1F9A7C"/>
<circle cx="118.5" cy="118.5" r="2.5" fill="#1F9A7C"/>
<circle cx="147.5" cy="118.5" r="2.5" fill="#1F9A7C"/>
<circle cx="176.5" cy="118.5" r="2.5" fill="#1F9A7C"/>
<circle cx="2.5" cy="147.5" r="2.5" fill="#1F9A7C"/>
<circle cx="31.5" cy="147.5" r="2.5" fill="#1F9A7C"/>
<circle cx="60.5" cy="147.5" r="2.5" fill="#1F9A7C"/>
<circle cx="89.5" cy="147.5" r="2.5" fill="#1F9A7C"/>
<circle cx="118.5" cy="147.5" r="2.5" fill="#1F9A7C"/>
<circle cx="147.5" cy="147.5" r="2.5" fill="#1F9A7C"/>
<circle cx="176.5" cy="147.5" r="2.5" fill="#1F9A7C"/>
</svg>
