<svg width="200" height="24" viewBox="0 0 200 24" fill="none" xmlns="http://www.w3.org/2000/svg">
<path fill-rule="evenodd" clip-rule="evenodd" d="M23.6146 0.29926C23.7006 0.385229 23.7389 0.507904 23.7172 0.627522L23.0185 4.46996C23.0171 4.47787 23.0154 4.48574 23.0135 4.49354C22.8176 5.2771 22.2186 6.21148 21.3161 6.68754C20.857 6.92972 20.3187 7.05277 19.7252 6.97142C19.2169 6.90176 18.6867 6.6849 18.1445 6.29333L17.5017 6.9362C17.357 7.08089 17.1224 7.08089 16.9777 6.9362C16.833 6.79151 16.833 6.55692 16.9777 6.41223L17.6184 5.77149C17.195 5.20011 16.9557 4.64871 16.8724 4.12541C16.7757 3.51734 16.8937 2.97091 17.1429 2.50942C17.6322 1.60368 18.6136 1.04216 19.4449 0.895176L23.2864 0.196719C23.406 0.17497 23.5287 0.213291 23.6146 0.29926ZM18.6765 5.76138C19.0989 6.04816 19.4842 6.19047 19.8258 6.23728C20.2518 6.29566 20.6348 6.20911 20.9704 6.03212C21.653 5.67204 22.1353 4.93653 22.2917 4.32504L22.7759 1.66191L20.23 4.20784H21.0821C21.2867 4.20784 21.4526 4.37372 21.4526 4.57834C21.4526 4.78296 21.2867 4.94884 21.0821 4.94884L19.489 4.94884L18.6765 5.76138ZM19.7061 3.68387L22.252 1.13794L19.5746 1.62474C18.9214 1.74 18.1569 2.1914 17.7949 2.86159C17.6185 3.18823 17.5345 3.57075 17.6042 4.00898C17.6614 4.36869 17.8249 4.78128 18.1491 5.24086L18.9651 4.42487V2.83178C18.9651 2.62715 19.1309 2.46127 19.3356 2.46127C19.5402 2.46127 19.7061 2.62715 19.7061 2.83178V3.68387Z" fill="white"/>
<path fill-rule="evenodd" clip-rule="evenodd" d="M0.415712 23.5589C0.501681 23.6449 0.624356 23.6832 0.743973 23.6615L4.5864 22.9628C4.59432 22.9614 4.60218 22.9597 4.60999 22.9578C5.39355 22.7619 6.32792 22.1629 6.80398 21.2604C7.04617 20.8012 7.16921 20.263 7.08786 19.6695C7.0182 19.1612 6.80134 18.631 6.40978 18.0888L7.05264 17.446C7.19733 17.3013 7.19733 17.0667 7.05264 16.922C6.90795 16.7773 6.67336 16.7773 6.52867 16.922L5.88794 17.5627C5.31655 17.1392 4.76515 16.9 4.24186 16.8167C3.63379 16.72 3.08736 16.8379 2.62586 17.0872C1.72013 17.5765 1.15861 18.5579 1.01163 19.3891L0.313171 23.2307C0.291422 23.3503 0.329743 23.4729 0.415712 23.5589ZM5.87782 18.6208C6.1646 19.0432 6.30691 19.4285 6.35372 19.7701C6.4121 20.196 6.32556 20.5791 6.14857 20.9147C5.78848 21.5973 5.05298 22.0796 4.44149 22.236L1.77836 22.7202L4.32428 20.1743V21.0264C4.32428 21.231 4.49016 21.3969 4.69478 21.3969C4.89941 21.3969 5.06529 21.231 5.06529 21.0264L5.06529 19.4333L5.87782 18.6208ZM3.80032 19.6503L1.25439 22.1963L1.74119 19.5189C1.85645 18.8657 2.30785 18.1012 2.97804 17.7392C3.30467 17.5627 3.6872 17.4788 4.12543 17.5485C4.48513 17.6057 4.89773 17.7692 5.35731 18.0934L4.54132 18.9093H2.94822C2.7436 18.9093 2.57772 19.0752 2.57772 19.2798C2.57772 19.4845 2.7436 19.6503 2.94822 19.6503H3.80032Z" fill="white"/>
<path fill-rule="evenodd" clip-rule="evenodd" d="M23.5843 23.5589C23.4983 23.6449 23.3756 23.6832 23.256 23.6615L19.4136 22.9628C19.4057 22.9614 19.3978 22.9597 19.39 22.9578C18.6065 22.7619 17.6721 22.1629 17.196 21.2604C16.9538 20.8012 16.8308 20.263 16.9121 19.6695C16.9818 19.1612 17.1987 18.631 17.5902 18.0888L16.9474 17.446C16.8027 17.3013 16.8027 17.0667 16.9474 16.922C17.0921 16.7773 17.3266 16.7773 17.4713 16.922L18.1121 17.5627C18.6834 17.1392 19.2348 16.9 19.7581 16.8167C20.3662 16.72 20.9126 16.8379 21.3741 17.0872C22.2799 17.5765 22.8414 18.5579 22.9884 19.3891L23.6868 23.2307C23.7086 23.3503 23.6703 23.4729 23.5843 23.5589ZM18.1222 18.6208C17.8354 19.0432 17.6931 19.4285 17.6463 19.7701C17.5879 20.196 17.6744 20.5791 17.8514 20.9147C18.2115 21.5973 18.947 22.0795 19.5585 22.236L22.2216 22.7202L19.6757 20.1743V21.0264C19.6757 21.231 19.5098 21.3969 19.3052 21.3969C19.1006 21.3969 18.9347 21.231 18.9347 21.0264V19.4333L18.1222 18.6208ZM20.1997 19.6503L22.7456 22.1963L22.2588 19.5189C22.1435 18.8657 21.6921 18.1012 21.022 17.7392C20.6953 17.5627 20.3128 17.4788 19.8746 17.5485C19.5149 17.6057 19.1023 17.7692 18.6427 18.0933L19.4587 18.9093H21.0518C21.2564 18.9093 21.4223 19.0752 21.4223 19.2798C21.4223 19.4845 21.2564 19.6503 21.0518 19.6503H20.1997Z" fill="white"/>
<path fill-rule="evenodd" clip-rule="evenodd" d="M0.355035 0.329592C0.269066 0.415561 0.230745 0.538237 0.252494 0.657854L0.951118 4.50029C0.952557 4.5082 0.954253 4.51607 0.956204 4.52387C1.15209 5.30743 1.75103 6.24181 2.65356 6.71787C3.1127 6.96006 3.65092 7.0831 4.2445 7.00175C4.7528 6.93209 5.28299 6.71523 5.82513 6.32367L6.46799 6.96653C6.61268 7.11122 6.84727 7.11122 6.99196 6.96653C7.13665 6.82184 7.13665 6.58725 6.99196 6.44256L6.35123 5.80182C6.7747 5.23044 7.01398 4.67904 7.09724 4.15574C7.19399 3.54767 7.07601 3.00124 6.82673 2.53975C6.33748 1.63401 5.35602 1.07249 4.52481 0.925508L0.683296 0.227051C0.563679 0.205302 0.441004 0.243624 0.355035 0.329592ZM5.29318 5.79171C4.87071 6.07849 4.48546 6.2208 4.14389 6.26761C3.71791 6.32599 3.33482 6.23944 2.99927 6.06246C2.31661 5.70237 1.8344 4.96686 1.67792 4.35537L1.19372 1.69224L3.73964 4.23817H2.88755C2.68292 4.23817 2.51704 4.40405 2.51705 4.60867C2.51704 4.81329 2.68292 4.97917 2.88755 4.97917L4.48064 4.97917L5.29318 5.79171ZM4.26361 3.7142L1.71768 1.16827L4.39506 1.65507C5.04822 1.77033 5.81275 2.22174 6.17476 2.89192C6.3512 3.21856 6.43517 3.60108 6.36544 4.03931C6.30821 4.39902 6.14479 4.81162 5.8206 5.27119L5.00461 4.4552V2.86211C5.00461 2.65749 4.83873 2.49161 4.63411 2.49161C4.42948 2.49161 4.26361 2.65749 4.26361 2.86211V3.7142Z" fill="white"/>
<path fill-rule="evenodd" clip-rule="evenodd" d="M12.6113 11.3027C12.2737 10.965 11.7263 10.965 11.3887 11.3027C11.0511 11.6403 11.0511 12.1876 11.3887 12.5252C11.7263 12.8629 12.2737 12.8629 12.6113 12.5252C12.9489 12.1876 12.9489 11.6403 12.6113 11.3027ZM10.8647 10.7787C11.4917 10.1517 12.5083 10.1517 13.1353 10.7787C13.7623 11.4057 13.7623 12.4222 13.1353 13.0492C12.5083 13.6762 11.4917 13.6762 10.8647 13.0492C10.2377 12.4222 10.2377 11.4057 10.8647 10.7787Z" fill="white"/>
<path fill-rule="evenodd" clip-rule="evenodd" d="M14.1832 9.73077C14.3279 9.87545 14.3279 10.11 14.1832 10.2547L13.1353 11.3027C12.9906 11.4474 12.756 11.4473 12.6113 11.3027C12.4666 11.158 12.4666 10.9234 12.6113 10.7787L13.6592 9.73077C13.8039 9.58608 14.0385 9.58608 14.1832 9.73077Z" fill="white"/>
<path fill-rule="evenodd" clip-rule="evenodd" d="M11.3887 12.5252C11.5334 12.6699 11.5334 12.9045 11.3887 13.0492L10.3408 14.0972C10.1961 14.2419 9.96149 14.2419 9.8168 14.0972C9.67211 13.9525 9.67211 13.7179 9.8168 13.5732L10.8647 12.5253C11.0094 12.3806 11.244 12.3806 11.3887 12.5252Z" fill="white"/>
<path fill-rule="evenodd" clip-rule="evenodd" d="M12.6113 12.5252C12.756 12.3806 12.9906 12.3806 13.1353 12.5253L14.1832 13.5732C14.3279 13.7179 14.3279 13.9525 14.1832 14.0972C14.0385 14.2419 13.8039 14.2419 13.6592 14.0972L12.6113 13.0492C12.4666 12.9046 12.4666 12.6699 12.6113 12.5252Z" fill="white"/>
<path fill-rule="evenodd" clip-rule="evenodd" d="M9.81681 9.73077C9.9615 9.58608 10.1961 9.58608 10.3408 9.73077L11.3887 10.7787C11.5334 10.9234 11.5334 11.158 11.3887 11.3027C11.244 11.4473 11.0094 11.4474 10.8647 11.3027L9.81681 10.2547C9.67212 10.11 9.67212 9.87546 9.81681 9.73077Z" fill="white"/>
<path fill-rule="evenodd" clip-rule="evenodd" d="M14.0187 12.8936C13.6016 12.7994 13.3031 12.8814 13.1353 13.0492C12.9675 13.217 12.8855 13.5155 12.9797 13.9326C13.0726 14.3442 13.3301 14.816 13.7466 15.2324C14.163 15.6489 14.6348 15.9064 15.0464 15.9993C15.4634 16.0935 15.762 16.0115 15.9298 15.8437C16.0975 15.6759 16.1795 15.3774 16.0854 14.9603C15.9924 14.5487 15.7349 14.077 15.3185 13.6605C14.902 13.2441 14.4303 12.9866 14.0187 12.8936ZM14.1819 12.1708C14.7501 12.2991 15.3425 12.6366 15.8424 13.1366C16.3424 13.6365 16.6799 14.2289 16.8082 14.7971C16.9352 15.3599 16.8647 15.9567 16.4537 16.3677C16.0428 16.7787 15.4459 16.8492 14.8832 16.7221C14.315 16.5938 13.7225 16.2563 13.2226 15.7564C12.7226 15.2565 12.3852 14.664 12.2569 14.0958C12.1298 13.5331 12.2003 12.9362 12.6113 12.5252C13.0223 12.1143 13.6191 12.0437 14.1819 12.1708Z" fill="white"/>
<path fill-rule="evenodd" clip-rule="evenodd" d="M11.0203 13.9326C11.1145 13.5155 11.0325 13.217 10.8647 13.0492C10.697 12.8814 10.3984 12.7994 9.98134 12.8936C9.56973 12.9865 9.09796 13.2441 8.68153 13.6605C8.2651 14.0769 8.00757 14.5487 7.91463 14.9603C7.82045 15.3774 7.90245 15.6759 8.07023 15.8437C8.23802 16.0115 8.53655 16.0935 8.95362 15.9993C9.36524 15.9064 9.83701 15.6488 10.2534 15.2324C10.6699 14.816 10.9274 14.3442 11.0203 13.9326ZM11.7431 14.0958C11.6148 14.664 11.2773 15.2564 10.7774 15.7564C10.2775 16.2563 9.68503 16.5938 9.11684 16.7221C8.55411 16.8492 7.95724 16.7786 7.54627 16.3677C7.13529 15.9567 7.06475 15.3598 7.19182 14.7971C7.32012 14.2289 7.65762 13.6365 8.15756 13.1365C8.6575 12.6366 9.24994 12.2991 9.81813 12.1708C10.3809 12.0437 10.9777 12.1143 11.3887 12.5252C11.7997 12.9362 11.8702 13.5331 11.7431 14.0958Z" fill="white"/>
<path fill-rule="evenodd" clip-rule="evenodd" d="M16.0854 8.86755C16.1795 8.45047 16.0975 8.15194 15.9298 7.98416C15.762 7.81637 15.4634 7.73437 15.0464 7.82855C14.6348 7.92149 14.163 8.17903 13.7466 8.59545C13.3301 9.01188 13.0726 9.48365 12.9797 9.89527C12.8855 10.3123 12.9675 10.6109 13.1353 10.7787C13.3031 10.9465 13.6016 11.0284 14.0186 10.9343C14.4303 10.8413 14.902 10.5838 15.3185 10.1674C15.7349 9.75093 15.9924 9.27916 16.0854 8.86755ZM16.8082 9.03076C16.6799 9.59895 16.3424 10.1914 15.8424 10.6913C15.3425 11.1913 14.7501 11.5288 14.1819 11.6571C13.6191 11.7841 13.0223 11.7136 12.6113 11.3027C12.2003 10.8917 12.1298 10.2948 12.2568 9.73205C12.3851 9.16386 12.7226 8.57143 13.2226 8.07148C13.7225 7.57154 14.315 7.23405 14.8832 7.10574C15.4459 6.97868 16.0427 7.04921 16.4537 7.46019C16.8647 7.87116 16.9352 8.46803 16.8082 9.03076Z" fill="white"/>
<path fill-rule="evenodd" clip-rule="evenodd" d="M8.95363 7.82859C8.53656 7.73441 8.23803 7.81641 8.07024 7.9842C7.90246 8.15198 7.82046 8.45051 7.91464 8.86759C8.00758 9.2792 8.26511 9.75097 8.68154 10.1674C9.09797 10.5838 9.56974 10.8414 9.98135 10.9343C10.3984 11.0285 10.697 10.9465 10.8647 10.7787C11.0325 10.6109 11.1145 10.3124 11.0203 9.8953C10.9274 9.48369 10.6699 9.01192 10.2534 8.59549C9.83702 8.17906 9.36525 7.92153 8.95363 7.82859ZM9.11685 7.10578C9.68504 7.23408 10.2775 7.57158 10.7774 8.07152C11.2774 8.57147 11.6149 9.1639 11.7432 9.73209C11.8702 10.2948 11.7997 10.8917 11.3887 11.3027C10.9777 11.7136 10.3809 11.7842 9.81814 11.6571C9.24995 11.5288 8.65751 11.1913 8.15757 10.6914C7.65763 10.1914 7.32013 9.59899 7.19183 9.0308C7.06477 8.46807 7.1353 7.8712 7.54628 7.46023C7.95725 7.04925 8.55412 6.97872 9.11685 7.10578Z" fill="white"/>
<path fill-rule="evenodd" clip-rule="evenodd" d="M12.3672 1.11495C12.2081 0.796754 12.0569 0.741004 12 0.741004C11.9431 0.741004 11.7919 0.796754 11.6328 1.11495C11.4847 1.411 11.3825 1.8459 11.3825 2.34651C11.3825 2.84712 11.4847 3.28203 11.6328 3.57807C11.7919 3.89627 11.9431 3.95202 12 3.95202C12.0569 3.95202 12.2081 3.89627 12.3672 3.57807C12.5153 3.28203 12.6175 2.84712 12.6175 2.34651C12.6175 1.8459 12.5153 1.411 12.3672 1.11495ZM13.03 0.783568C13.2396 1.2027 13.3585 1.7558 13.3585 2.34651C13.3585 2.93722 13.2396 3.49032 13.03 3.90945C12.8315 4.30643 12.4888 4.69302 12 4.69302C11.5112 4.69302 11.1685 4.30643 10.97 3.90945C10.7604 3.49032 10.6415 2.93722 10.6415 2.34651C10.6415 1.7558 10.7604 1.2027 10.97 0.783568C11.1685 0.386595 11.5112 -2.13648e-08 12 0C12.4888 2.13648e-08 12.8315 0.386595 13.03 0.783568Z" fill="white"/>
<path fill-rule="evenodd" clip-rule="evenodd" d="M12.8356 7.65783C12.8354 7.19876 12.463 6.82637 12.0039 6.82617C11.5451 6.82598 11.1734 7.19768 11.1736 7.65651L11.174 8.6177C11.1741 8.82232 11.0083 8.98827 10.8036 8.98836C10.599 8.98845 10.4331 8.82264 10.433 8.61801L10.4326 7.65682C10.4322 6.78851 11.1359 6.0848 12.0042 6.08517C12.8723 6.08553 13.5762 6.78945 13.5766 7.65752L13.577 8.6C13.5771 8.80462 13.4113 8.97057 13.2066 8.97066C13.002 8.97074 12.8361 8.80493 12.836 8.60031L12.8356 7.65783Z" fill="white"/>
<path fill-rule="evenodd" clip-rule="evenodd" d="M1.11495 12.3672C0.796753 12.2081 0.741003 12.0569 0.741003 12C0.741003 11.9431 0.796753 11.7919 1.11495 11.6327C1.41099 11.4847 1.8459 11.3825 2.34651 11.3825C2.84712 11.3825 3.28202 11.4847 3.57806 11.6327C3.89626 11.7919 3.95201 11.9431 3.95201 12C3.95201 12.0569 3.89626 12.2081 3.57806 12.3672C3.28202 12.5152 2.84712 12.6175 2.34651 12.6175C1.8459 12.6175 1.41099 12.5152 1.11495 12.3672ZM0.783567 13.03C1.2027 13.2396 1.7558 13.3585 2.34651 13.3585C2.93721 13.3585 3.49032 13.2396 3.90945 13.03C4.30642 12.8315 4.69302 12.4888 4.69302 12C4.69302 11.5112 4.30642 11.1685 3.90945 10.97C3.49032 10.7604 2.93721 10.6415 2.34651 10.6415C1.7558 10.6415 1.2027 10.7604 0.783567 10.97C0.386594 11.1685 0 11.5112 0 12C0 12.4888 0.386594 12.8315 0.783567 13.03Z" fill="white"/>
<path fill-rule="evenodd" clip-rule="evenodd" d="M7.65782 12.8356C7.19875 12.8354 6.82636 12.463 6.82616 12.0039C6.82597 11.5451 7.19767 11.1734 7.6565 11.1736L8.61769 11.174C8.82231 11.1741 8.98826 11.0083 8.98835 10.8036C8.98843 10.599 8.82262 10.4331 8.618 10.433L7.65681 10.4326C6.7885 10.4322 6.0848 11.1359 6.08516 12.0042C6.08553 12.8723 6.78944 13.5762 7.6575 13.5766L8.59999 13.577C8.80461 13.577 8.97056 13.4112 8.97064 13.2066C8.97073 13.002 8.80492 12.836 8.6003 12.836L7.65782 12.8356Z" fill="white"/>
<path fill-rule="evenodd" clip-rule="evenodd" d="M22.885 11.6328C23.2032 11.7919 23.259 11.9431 23.259 12C23.259 12.0569 23.2032 12.2082 22.885 12.3673C22.589 12.5153 22.1541 12.6175 21.6535 12.6175C21.1529 12.6175 20.718 12.5153 20.4219 12.3673C20.1037 12.2082 20.048 12.0569 20.048 12C20.048 11.9431 20.1037 11.7919 20.4219 11.6328C20.718 11.4848 21.1529 11.3825 21.6535 11.3825C22.1541 11.3825 22.589 11.4848 22.885 11.6328ZM23.2164 10.97C22.7973 10.7604 22.2442 10.6415 21.6535 10.6415C21.0628 10.6415 20.5097 10.7604 20.0906 10.97C19.6936 11.1685 19.307 11.5112 19.307 12C19.307 12.4888 19.6936 12.8315 20.0906 13.03C20.5097 13.2396 21.0628 13.3585 21.6535 13.3585C22.2442 13.3585 22.7973 13.2396 23.2164 13.03C23.6134 12.8315 24 12.4888 24 12C24 11.5112 23.6134 11.1685 23.2164 10.97Z" fill="white"/>
<path fill-rule="evenodd" clip-rule="evenodd" d="M16.3422 11.1644C16.8013 11.1646 17.1736 11.537 17.1738 11.9961C17.174 12.4549 16.8023 12.8266 16.3435 12.8264L15.3823 12.826C15.1777 12.8259 15.0117 12.9917 15.0117 13.1964C15.0116 13.401 15.1774 13.5669 15.382 13.567L16.3432 13.5674C17.2115 13.5678 17.9152 12.8641 17.9148 11.9958C17.9145 11.1277 17.2106 10.4238 16.3425 10.4234L15.4 10.423C15.1954 10.423 15.0294 10.5888 15.0294 10.7934C15.0293 10.998 15.1951 11.164 15.3997 11.164L16.3422 11.1644Z" fill="white"/>
<path fill-rule="evenodd" clip-rule="evenodd" d="M11.6328 22.885C11.7919 23.2032 11.9431 23.259 12 23.259C12.0569 23.259 12.2081 23.2032 12.3672 22.885C12.5153 22.589 12.6175 22.1541 12.6175 21.6535C12.6175 21.1529 12.5153 20.718 12.3672 20.4219C12.2081 20.1037 12.0569 20.048 12 20.048C11.9431 20.048 11.7919 20.1037 11.6328 20.4219C11.4847 20.718 11.3825 21.1529 11.3825 21.6535C11.3825 22.1541 11.4847 22.589 11.6328 22.885ZM10.97 23.2164C10.7604 22.7973 10.6415 22.2442 10.6415 21.6535C10.6415 21.0628 10.7604 20.5097 10.97 20.0905C11.1685 19.6936 11.5112 19.307 12 19.307C12.4888 19.307 12.8315 19.6936 13.03 20.0905C13.2396 20.5097 13.3585 21.0628 13.3585 21.6535C13.3585 22.2442 13.2396 22.7973 13.03 23.2164C12.8315 23.6134 12.4888 24 12 24C11.5112 24 11.1685 23.6134 10.97 23.2164Z" fill="white"/>
<path fill-rule="evenodd" clip-rule="evenodd" d="M11.1644 16.3422C11.1646 16.8012 11.537 17.1736 11.9961 17.1738C12.4549 17.174 12.8266 16.8023 12.8264 16.3435L12.826 15.3823C12.8259 15.1777 12.9917 15.0117 13.1963 15.0116C13.401 15.0116 13.5669 15.1774 13.567 15.382L13.5674 16.3432C13.5678 17.2115 12.8641 17.9152 11.9958 17.9148C11.1277 17.9145 10.4238 17.2106 10.4234 16.3425L10.423 15.4C10.4229 15.1954 10.5887 15.0294 10.7934 15.0293C10.998 15.0293 11.1639 15.1951 11.164 15.3997L11.1644 16.3422Z" fill="white"/>
<path d="M187.859 21.0881V2.90625H199.259V5.26776H190.603V10.8075H198.664V13.1602H190.603V18.7266H199.365V21.0881H187.859Z" fill="white"/>
<path d="M181.438 8.6527C181.267 8.11411 181.036 7.63175 180.746 7.20561C180.462 6.77356 180.122 6.40661 179.725 6.10476C179.329 5.79699 178.876 5.56321 178.367 5.40341C177.864 5.24361 177.31 5.16371 176.707 5.16371C175.683 5.16371 174.759 5.42708 173.937 5.95384C173.114 6.48059 172.463 7.25296 171.984 8.27095C171.51 9.28303 171.273 10.523 171.273 11.9908C171.273 13.4645 171.513 14.7103 171.992 15.7283C172.472 16.7463 173.129 17.5187 173.963 18.0455C174.798 18.5722 175.748 18.8356 176.813 18.8356C177.802 18.8356 178.663 18.6344 179.397 18.2319C180.136 17.8294 180.708 17.2612 181.11 16.5273C181.518 15.7875 181.723 14.9175 181.723 13.9173L182.433 14.0504H177.23V11.7866H184.377V13.8551C184.377 15.3821 184.052 16.7079 183.4 17.8324C182.755 18.951 181.862 19.8151 180.719 20.4247C179.583 21.0343 178.281 21.3391 176.813 21.3391C175.168 21.3391 173.724 20.9603 172.481 20.2028C171.244 19.4452 170.279 18.371 169.587 16.9801C168.894 15.5833 168.548 13.9261 168.548 12.0085C168.548 10.5585 168.749 9.25639 169.152 8.10227C169.554 6.94815 170.119 5.96863 170.847 5.16371C171.581 4.35287 172.442 3.73438 173.431 3.30824C174.425 2.87618 175.511 2.66016 176.689 2.66016C177.671 2.66016 178.586 2.80516 179.432 3.09517C180.284 3.38518 181.042 3.79652 181.705 4.32919C182.374 4.86186 182.927 5.49515 183.365 6.22905C183.803 6.95703 184.099 7.76491 184.253 8.6527H181.438Z" fill="white"/>
<path d="M153.021 21.0881V2.90625H159.501C160.91 2.90625 162.079 3.14891 163.008 3.63423C163.943 4.11955 164.642 4.79131 165.103 5.6495C165.565 6.50178 165.796 7.48722 165.796 8.60582C165.796 9.71851 165.562 10.698 165.094 11.5444C164.633 12.3848 163.934 13.0388 162.999 13.5064C162.07 13.974 160.901 14.2077 159.492 14.2077H154.583V11.8462H159.244C160.132 11.8462 160.854 11.719 161.41 11.4645C161.972 11.21 162.384 10.8401 162.644 10.3548C162.905 9.86944 163.035 9.28646 163.035 8.60582C163.035 7.91927 162.902 7.32446 162.635 6.82138C162.375 6.3183 161.963 5.93359 161.401 5.66726C160.845 5.395 160.114 5.25888 159.208 5.25888H155.764V21.0881H153.021ZM161.996 12.8849L166.488 21.0881H163.363L158.96 12.8849H161.996Z" fill="white"/>
<path d="M137.957 21.0881V2.90625H149.356V5.26776H140.7V10.8075H148.761V13.1602H140.7V18.7266H149.463V21.0881H137.957Z" fill="white"/>
<path d="M115.521 2.90625H118.85L124.638 17.0398H124.851L130.639 2.90625H133.969V21.0881H131.359V7.93111H131.19L125.828 21.0614H123.661L118.299 7.92223H118.131V21.0881H115.521V2.90625Z" fill="white"/>
<path d="M98.3398 5.26776V2.90625H112.411V5.26776H106.738V21.0881H104.004V5.26776H98.3398Z" fill="white"/>
<path d="M84.5879 21.0881V2.90625H95.8627V5.26776H87.3311V10.8075H95.0549V13.1602H87.3311V21.0881H84.5879Z" fill="white"/>
<path d="M68.619 21.0881H65.707L72.25 2.90625H75.4194L81.9624 21.0881H79.0504L73.9102 6.20881H73.7681L68.619 21.0881ZM69.1072 13.968H78.5533V16.2763H69.1072V13.968Z" fill="white"/>
<path d="M50.9697 21.0881V2.90625H57.4506C58.8592 2.90625 60.0281 3.14891 60.9573 3.63423C61.8924 4.11955 62.5908 4.79131 63.0525 5.6495C63.5141 6.50178 63.7449 7.48722 63.7449 8.60582C63.7449 9.71851 63.5112 10.698 63.0436 11.5444C62.5819 12.3848 61.8836 13.0388 60.9484 13.5064C60.0192 13.974 58.8503 14.2077 57.4417 14.2077H52.5322V11.8462H57.1931C58.0809 11.8462 58.8029 11.719 59.3593 11.4645C59.9215 11.21 60.3329 10.8401 60.5933 10.3548C60.8537 9.86944 60.9839 9.28646 60.9839 8.60582C60.9839 7.91927 60.8508 7.32446 60.5844 6.82138C60.324 6.3183 59.9127 5.93359 59.3504 5.66726C58.7941 5.395 58.0631 5.25888 57.1576 5.25888H53.713V21.0881H50.9697ZM59.9452 12.8849L64.4374 21.0881H61.3124L56.909 12.8849H59.9452Z" fill="white"/>
<path d="M47.6871 8.82138H44.9173C44.8107 8.22952 44.6125 7.70869 44.3224 7.25888C44.0324 6.80907 43.6773 6.42732 43.2571 6.11364C42.8369 5.79995 42.3664 5.56321 41.8455 5.40341C41.3306 5.24361 40.7831 5.16371 40.2031 5.16371C39.1555 5.16371 38.2174 5.42708 37.3888 5.95384C36.5662 6.48059 35.9151 7.25296 35.4357 8.27095C34.9622 9.28894 34.7255 10.5318 34.7255 11.9996C34.7255 13.4793 34.9622 14.7281 35.4357 15.7461C35.9151 16.7641 36.5691 17.5335 37.3977 18.0543C38.2263 18.5752 39.1585 18.8356 40.1942 18.8356C40.7683 18.8356 41.3129 18.7586 41.8278 18.6048C42.3486 18.445 42.8191 18.2112 43.2393 17.9034C43.6596 17.5956 44.0147 17.2198 44.3047 16.7759C44.6006 16.3261 44.8048 15.8112 44.9173 15.2312L47.6871 15.2401C47.5392 16.1338 47.2521 16.9564 46.826 17.7081C46.4058 18.4538 45.8642 19.099 45.2013 19.6435C44.5444 20.1821 43.7927 20.5993 42.9464 20.8952C42.1 21.1912 41.1767 21.3391 40.1765 21.3391C38.6022 21.3391 37.1995 20.9663 35.9684 20.2205C34.7373 19.4689 33.7667 18.3946 33.0565 16.9979C32.3522 15.6011 32 13.935 32 11.9996C32 10.0584 32.3551 8.39228 33.0653 7.00142C33.7756 5.60464 34.7462 4.53338 35.9773 3.78764C37.2083 3.03598 38.6081 2.66016 40.1765 2.66016C41.1412 2.66016 42.0408 2.79924 42.8754 3.07742C43.7158 3.34967 44.4704 3.75213 45.1392 4.2848C45.808 4.81155 46.3614 5.45668 46.7994 6.22017C47.2373 6.97775 47.5333 7.84482 47.6871 8.82138Z" fill="white"/>
</svg>
