<svg width="31" height="30" viewBox="0 0 31 30" fill="none" xmlns="http://www.w3.org/2000/svg">
<path fill-rule="evenodd" clip-rule="evenodd" d="M30.5022 0.861606C30.6133 0.965485 30.6628 1.11372 30.6347 1.25826L29.7323 5.9012C29.7304 5.91076 29.7282 5.92027 29.7257 5.9297C29.4727 6.8765 28.6991 8.00554 27.5333 8.58077C26.9402 8.87342 26.245 9.02209 25.4783 8.9238C24.8218 8.83963 24.137 8.57758 23.4367 8.10445L22.6063 8.88124C22.4194 9.05607 22.1164 9.05607 21.9295 8.88124C21.7426 8.7064 21.7426 8.42294 21.9295 8.24811L22.7571 7.47388C22.2102 6.78346 21.9011 6.11719 21.7935 5.48487C21.6686 4.75012 21.821 4.08985 22.143 3.53221C22.7749 2.43778 24.0426 1.75928 25.1163 1.58167L30.0782 0.737702C30.2327 0.711422 30.3912 0.757727 30.5022 0.861606ZM24.1238 7.46167C24.6695 7.80819 25.1671 7.98015 25.6083 8.03671C26.1585 8.10725 26.6533 8.00268 27.0867 7.78882C27.9685 7.35371 28.5914 6.46497 28.7935 5.72609L29.4189 2.50814L26.1304 5.58447H27.2311C27.4954 5.58447 27.7096 5.78491 27.7096 6.03216C27.7096 6.27941 27.4954 6.47985 27.2311 6.47985L25.1733 6.47985L24.1238 7.46167ZM25.4537 4.95134L28.7421 1.87501L25.2839 2.46323C24.4402 2.6025 23.4527 3.14794 22.9851 3.95775C22.7572 4.35244 22.6487 4.81466 22.7388 5.34418C22.8127 5.77883 23.0238 6.27738 23.4425 6.83271L24.4965 5.84672V3.92173C24.4965 3.67448 24.7108 3.47404 24.9751 3.47404C25.2394 3.47404 25.4537 3.67448 25.4537 3.92173V4.95134Z" fill="#231C09"/>
<path fill-rule="evenodd" clip-rule="evenodd" d="M0.536961 28.967C0.648004 29.0709 0.80646 29.1172 0.960966 29.0909L5.92411 28.2468C5.93433 28.245 5.94449 28.243 5.95457 28.2406C6.96667 28.0039 8.17357 27.2802 8.78848 26.1896C9.1013 25.6348 9.26023 24.9845 9.15516 24.2673C9.06518 23.6531 8.78506 23.0124 8.2793 22.3573L9.10966 21.5805C9.29655 21.4057 9.29655 21.1222 9.10966 20.9474C8.92277 20.7726 8.61976 20.7726 8.43287 20.9474L7.60525 21.7216C6.86721 21.2099 6.15499 20.9208 5.47907 20.8202C4.69364 20.7033 3.98784 20.8458 3.39174 21.1471C2.22183 21.7382 1.49654 22.9242 1.30669 23.9285L0.404513 28.5704C0.376421 28.7149 0.425919 28.8631 0.536961 28.967ZM7.59219 23.0001C7.96261 23.5106 8.14643 23.9761 8.20689 24.3888C8.2823 24.9036 8.17051 25.3665 7.9419 25.7719C7.47679 26.5968 6.52676 27.1795 5.73692 27.3685L2.29705 27.9536L5.58553 24.8773V25.9069C5.58553 26.1542 5.79979 26.3546 6.0641 26.3546C6.3284 26.3546 6.54266 26.1542 6.54266 25.9069L6.54266 23.9819L7.59219 23.0001ZM4.90874 24.2442L1.62026 27.3205L2.24904 24.0853C2.39792 23.2961 2.98098 22.3723 3.84663 21.9349C4.26854 21.7217 4.76263 21.6202 5.32868 21.7044C5.7933 21.7736 6.32623 21.9711 6.91985 22.3628L5.86587 23.3488H3.80812C3.54382 23.3488 3.32956 23.5492 3.32956 23.7965C3.32956 24.0437 3.54382 24.2442 3.80812 24.2442H4.90874Z" fill="#231C09"/>
<path fill-rule="evenodd" clip-rule="evenodd" d="M30.463 28.967C30.352 29.0709 30.1935 29.1172 30.039 29.0909L25.0759 28.2468C25.0657 28.245 25.0555 28.243 25.0454 28.2406C24.0333 28.0039 22.8264 27.2802 22.2115 26.1896C21.8987 25.6348 21.7398 24.9845 21.8448 24.2673C21.9348 23.6531 22.2149 23.0124 22.7207 22.3573L21.8903 21.5805C21.7035 21.4057 21.7035 21.1222 21.8903 20.9474C22.0772 20.7726 22.3802 20.7726 22.5671 20.9474L23.3948 21.7216C24.1328 21.2099 24.845 20.9208 25.5209 20.8202C26.3064 20.7033 27.0122 20.8458 27.6083 21.1471C28.7782 21.7382 29.5035 22.9242 29.6933 23.9285L30.5955 28.5704C30.6236 28.7149 30.5741 28.8631 30.463 28.967ZM23.4078 23.0001C23.0374 23.5106 22.8536 23.9761 22.7931 24.3888C22.7177 24.9035 22.8295 25.3665 23.0581 25.7719C23.5232 26.5968 24.4732 27.1795 25.2631 27.3685L28.703 27.9536L25.4145 24.8773V25.9069C25.4145 26.1542 25.2002 26.3546 24.9359 26.3546C24.6716 26.3546 24.4573 26.1542 24.4573 25.9069V23.9819L23.4078 23.0001ZM26.0913 24.2442L29.3797 27.3205L28.751 24.0853C28.6021 23.2961 28.019 22.3723 27.1534 21.9349C26.7315 21.7217 26.2374 21.6202 25.6713 21.7044C25.2067 21.7736 24.6738 21.9711 24.0801 22.3628L25.1341 23.3488H27.1919C27.4562 23.3488 27.6704 23.5492 27.6704 23.7965C27.6704 24.0437 27.4562 24.2442 27.1919 24.2442H26.0913Z" fill="#231C09"/>
<path fill-rule="evenodd" clip-rule="evenodd" d="M0.458587 0.898257C0.347544 1.00214 0.298046 1.15037 0.326138 1.29491L1.22853 5.93785C1.23039 5.94741 1.23258 5.95692 1.2351 5.96635C1.48812 6.91315 2.26175 8.04219 3.42752 8.61743C4.02058 8.91007 4.71577 9.05874 5.48248 8.96045C6.13903 8.87628 6.82386 8.61423 7.52413 8.1411L8.35449 8.91789C8.54138 9.09272 8.84439 9.09272 9.03129 8.91789C9.21818 8.74306 9.21818 8.45959 9.03129 8.28476L8.20367 7.51054C8.75065 6.82011 9.05973 6.15384 9.16727 5.52152C9.29223 4.78677 9.13985 4.1265 8.81785 3.56886C8.18591 2.47443 6.91819 1.79593 5.84454 1.61832L0.882591 0.774353C0.728086 0.748074 0.56963 0.794378 0.458587 0.898257ZM6.83702 7.49832C6.29134 7.84484 5.79372 8.0168 5.35252 8.07336C4.8023 8.1439 4.30747 8.03933 3.87406 7.82547C2.99229 7.39036 2.36944 6.50163 2.16731 5.76274L1.54188 2.54479L4.83036 5.62112H3.72975C3.46544 5.62112 3.25118 5.82156 3.25118 6.06881C3.25118 6.31606 3.46544 6.5165 3.72975 6.5165L5.78749 6.5165L6.83702 7.49832ZM5.50716 4.98799L2.21867 1.91166L5.67696 2.49988C6.52062 2.63915 7.50813 3.1846 7.97573 3.9944C8.20363 4.38909 8.31209 4.85131 8.22203 5.38084C8.14811 5.81548 7.93702 6.31404 7.51827 6.86936L6.46428 5.88337V3.95838C6.46428 3.71113 6.25002 3.51069 5.98572 3.51069C5.72142 3.51069 5.50716 3.71113 5.50716 3.95838V4.98799Z" fill="#231C09"/>
<path fill-rule="evenodd" clip-rule="evenodd" d="M16.2896 14.1574C15.8535 13.7494 15.1465 13.7494 14.7104 14.1574C14.2743 14.5653 14.2743 15.2267 14.7104 15.6347C15.1465 16.0426 15.8535 16.0426 16.2896 15.6347C16.7257 15.2267 16.7257 14.5653 16.2896 14.1574ZM14.0336 13.5242C14.8435 12.7666 16.1565 12.7666 16.9664 13.5242C17.7762 14.2819 17.7762 15.5102 16.9664 16.2678C16.1565 17.0254 14.8435 17.0254 14.0336 16.2678C13.2238 15.5102 13.2238 14.2819 14.0336 13.5242Z" fill="#231C09"/>
<path fill-rule="evenodd" clip-rule="evenodd" d="M18.32 12.258C18.5069 12.4328 18.5069 12.7163 18.32 12.8911L16.9664 14.1574C16.7795 14.3322 16.4765 14.3322 16.2896 14.1574C16.1027 13.9825 16.1027 13.6991 16.2896 13.5243L17.6432 12.258C17.8301 12.0832 18.1331 12.0832 18.32 12.258Z" fill="#231C09"/>
<path fill-rule="evenodd" clip-rule="evenodd" d="M14.7104 15.6347C14.8973 15.8095 14.8973 16.093 14.7104 16.2678L13.3568 17.5341C13.1699 17.7089 12.8669 17.7089 12.68 17.5341C12.4931 17.3593 12.4931 17.0758 12.68 16.901L14.0336 15.6347C14.2205 15.4599 14.5235 15.4598 14.7104 15.6347Z" fill="#231C09"/>
<path fill-rule="evenodd" clip-rule="evenodd" d="M16.2896 15.6347C16.4765 15.4598 16.7795 15.4599 16.9664 15.6347L18.32 16.901C18.5069 17.0758 18.5069 17.3593 18.32 17.5341C18.1331 17.7089 17.8301 17.7089 17.6432 17.5341L16.2896 16.2678C16.1027 16.093 16.1027 15.8095 16.2896 15.6347Z" fill="#231C09"/>
<path fill-rule="evenodd" clip-rule="evenodd" d="M12.68 12.258C12.8669 12.0832 13.1699 12.0832 13.3568 12.258L14.7104 13.5243C14.8973 13.6991 14.8973 13.9825 14.7104 14.1574C14.5235 14.3322 14.2205 14.3322 14.0336 14.1574L12.68 12.8911C12.4931 12.7163 12.4931 12.4328 12.68 12.258Z" fill="#231C09"/>
<path fill-rule="evenodd" clip-rule="evenodd" d="M18.1074 16.0798C17.5687 15.966 17.1831 16.0651 16.9664 16.2678C16.7497 16.4705 16.6437 16.8313 16.7654 17.3352C16.8854 17.8326 17.2181 18.4027 17.756 18.9059C18.2939 19.409 18.9032 19.7202 19.4349 19.8325C19.9736 19.9463 20.3592 19.8472 20.5759 19.6445C20.7927 19.4418 20.8986 19.081 20.7769 18.5771C20.6569 18.0797 20.3242 17.5097 19.7863 17.0065C19.2485 16.5033 18.6391 16.1921 18.1074 16.0798ZM18.3182 15.2064C19.0522 15.3614 19.8174 15.7692 20.4631 16.3733C21.1089 16.9774 21.5448 17.6933 21.7106 18.3799C21.8747 19.0598 21.7836 19.781 21.2527 20.2776C20.7219 20.7742 19.9509 20.8595 19.2241 20.7059C18.4902 20.5509 17.7249 20.1431 17.0792 19.539C16.4334 18.9349 15.9975 18.219 15.8318 17.5325C15.6676 16.8525 15.7587 16.1313 16.2896 15.6347C16.8204 15.1381 17.5914 15.0529 18.3182 15.2064Z" fill="#231C09"/>
<path fill-rule="evenodd" clip-rule="evenodd" d="M14.2346 17.3352C14.3562 16.8312 14.2503 16.4705 14.0336 16.2678C13.8169 16.0651 13.4313 15.9659 12.8926 16.0797C12.3609 16.1921 11.7515 16.5032 11.2136 17.0064C10.6758 17.5096 10.3431 18.0797 10.2231 18.577C10.1014 19.081 10.2073 19.4417 10.4241 19.6445C10.6408 19.8472 11.0264 19.9463 11.5651 19.8325C12.0968 19.7202 12.7061 19.409 13.244 18.9058C13.7819 18.4026 14.1145 17.8326 14.2346 17.3352ZM15.1682 17.5324C15.0025 18.219 14.5666 18.9348 13.9208 19.5389C13.2751 20.143 12.5098 20.5508 11.7759 20.7059C11.0491 20.8594 10.2781 20.7742 9.74726 20.2776C9.21642 19.781 9.12531 19.0598 9.28944 18.3798C9.45516 17.6932 9.89109 16.9774 10.5368 16.3733C11.1826 15.7692 11.9478 15.3614 12.6817 15.2064C13.4086 15.0528 14.1796 15.1381 14.7104 15.6347C15.2413 16.1313 15.3324 16.8525 15.1682 17.5324Z" fill="#231C09"/>
<path fill-rule="evenodd" clip-rule="evenodd" d="M20.7769 11.215C20.8986 10.711 20.7927 10.3503 20.5759 10.1475C20.3592 9.94478 19.9736 9.8457 19.4349 9.9595C18.9032 10.0718 18.2939 10.383 17.756 10.8862C17.2181 11.3894 16.8854 11.9594 16.7654 12.4568C16.6437 12.9607 16.7497 13.3215 16.9664 13.5242C17.1831 13.727 17.5687 13.826 18.1074 13.7122C18.6391 13.5999 19.2485 13.2887 19.7863 12.7856C20.3242 12.2824 20.6569 11.7123 20.7769 11.215ZM21.7105 11.4122C21.5448 12.0987 21.1089 12.8146 20.4631 13.4187C19.8174 14.0228 19.0521 14.4306 18.3182 14.5856C17.5914 14.7392 16.8204 14.654 16.2896 14.1574C15.7587 13.6608 15.6676 12.9395 15.8318 12.2596C15.9975 11.573 16.4334 10.8571 17.0792 10.253C17.7249 9.64895 18.4902 9.24114 19.2241 9.08611C19.9509 8.93257 20.7219 9.0178 21.2527 9.51439C21.7836 10.011 21.8747 10.7322 21.7105 11.4122Z" fill="#231C09"/>
<path fill-rule="evenodd" clip-rule="evenodd" d="M11.5651 9.95955C11.0264 9.84575 10.6408 9.94483 10.4241 10.1476C10.2073 10.3503 10.1014 10.711 10.2231 11.215C10.3431 11.7124 10.6758 12.2824 11.2137 12.7856C11.7515 13.2888 12.3609 13.6 12.8926 13.7123C13.4313 13.8261 13.8169 13.727 14.0336 13.5242C14.2503 13.3215 14.3563 12.9608 14.2346 12.4568C14.1146 11.9595 13.7819 11.3894 13.244 10.8862C12.7061 10.383 12.0968 10.0719 11.5651 9.95955ZM11.7759 9.08615C12.5098 9.24119 13.2751 9.649 13.9208 10.2531C14.5666 10.8572 15.0025 11.573 15.1682 12.2596C15.3324 12.9396 15.2413 13.6608 14.7104 14.1574C14.1796 14.654 13.4086 14.7392 12.6818 14.5857C11.9479 14.4306 11.1826 14.0228 10.5369 13.4187C9.89111 12.8146 9.45517 12.0988 9.28945 11.4122C9.12532 10.7323 9.21643 10.011 9.74727 9.51444C10.2781 9.01785 11.0491 8.93261 11.7759 9.08615Z" fill="#231C09"/>
<path fill-rule="evenodd" clip-rule="evenodd" d="M15.9744 1.84724C15.7688 1.46274 15.5735 1.39538 15.5 1.39538C15.4265 1.39538 15.2312 1.46274 15.0257 1.84724C14.8345 2.20495 14.7024 2.73046 14.7024 3.33537C14.7024 3.94028 14.8345 4.46578 15.0257 4.8235C15.2312 5.20799 15.4265 5.27536 15.5 5.27536C15.5735 5.27536 15.7688 5.20799 15.9744 4.8235C16.1655 4.46578 16.2976 3.94028 16.2976 3.33537C16.2976 2.73046 16.1655 2.20495 15.9744 1.84724ZM16.8304 1.44681C17.1011 1.95327 17.2547 2.6216 17.2547 3.33537C17.2547 4.04914 17.1011 4.71747 16.8304 5.22392C16.5741 5.7036 16.1313 6.17074 15.5 6.17074C14.8687 6.17074 14.426 5.7036 14.1696 5.22392C13.8989 4.71747 13.7453 4.04914 13.7453 3.33537C13.7453 2.6216 13.8989 1.95327 14.1696 1.44681C14.426 0.967135 14.8687 0.5 15.5 0.5C16.1313 0.5 16.5741 0.967135 16.8304 1.44681Z" fill="#231C09"/>
<path fill-rule="evenodd" clip-rule="evenodd" d="M16.5793 9.75321C16.579 9.1985 16.098 8.74852 15.5051 8.74829C14.9124 8.74806 14.4323 9.1972 14.4326 9.75161L14.4331 10.9131C14.4332 11.1603 14.219 11.3608 13.9547 11.3609C13.6904 11.361 13.4761 11.1607 13.476 10.9134L13.4754 9.75199C13.475 8.70278 14.3839 7.85247 15.5055 7.85291C16.6267 7.85335 17.5359 8.70391 17.5364 9.75283L17.5369 10.8917C17.537 11.1389 17.3229 11.3394 17.0586 11.3395C16.7943 11.3396 16.5799 11.1393 16.5798 10.892L16.5793 9.75321Z" fill="#231C09"/>
<path fill-rule="evenodd" clip-rule="evenodd" d="M1.44015 15.4437C1.02914 15.2515 0.957128 15.0687 0.957128 15C0.957128 14.9312 1.02914 14.7485 1.44015 14.5562C1.82253 14.3774 2.38428 14.2538 3.03091 14.2538C3.67753 14.2538 4.23928 14.3774 4.62166 14.5562C5.03267 14.7485 5.10468 14.9312 5.10468 15C5.10468 15.0687 5.03267 15.2515 4.62166 15.4437C4.23928 15.6226 3.67753 15.7461 3.03091 15.7461C2.38428 15.7461 1.82253 15.6226 1.44015 15.4437ZM1.01211 16.2446C1.55349 16.4978 2.26791 16.6415 3.03091 16.6415C3.7939 16.6415 4.50832 16.4978 5.04971 16.2446C5.56246 16.0047 6.06181 15.5906 6.06181 15C6.06181 14.4094 5.56246 13.9952 5.04971 13.7554C4.50832 13.5022 3.7939 13.3585 3.03091 13.3585C2.26791 13.3585 1.55349 13.5022 1.01211 13.7554C0.499351 13.9952 0 14.4094 0 15C0 15.5906 0.499351 16.0047 1.01211 16.2446Z" fill="#231C09"/>
<path fill-rule="evenodd" clip-rule="evenodd" d="M9.89135 16.0096C9.29838 16.0094 8.81738 15.5594 8.81713 15.0047C8.81688 14.4503 9.29699 14.0012 9.88964 14.0014L11.1312 14.0019C11.3955 14.002 11.6098 13.8016 11.6099 13.5544C11.6101 13.3071 11.3959 13.1066 11.1316 13.1065L9.89004 13.106C8.76847 13.1056 7.85953 13.9559 7.86 15.0051C7.86047 16.054 8.76969 16.9046 9.89094 16.905L11.1083 16.9055C11.3726 16.9056 11.587 16.7052 11.5871 16.458C11.5872 16.2107 11.373 16.0102 11.1087 16.0101L9.89135 16.0096Z" fill="#231C09"/>
<path fill-rule="evenodd" clip-rule="evenodd" d="M29.5599 14.5563C29.9709 14.7485 30.0429 14.9313 30.0429 15C30.0429 15.0688 29.9709 15.2515 29.5599 15.4438C29.1775 15.6226 28.6157 15.7462 27.9691 15.7462C27.3225 15.7462 26.7607 15.6226 26.3783 15.4438C25.9673 15.2515 25.8953 15.0688 25.8953 15C25.8953 14.9313 25.9673 14.7485 26.3783 14.5563C26.7607 14.3774 27.3225 14.2539 27.9691 14.2539C28.6157 14.2539 29.1775 14.3774 29.5599 14.5563ZM29.9879 13.7554C29.4465 13.5022 28.7321 13.3585 27.9691 13.3585C27.2061 13.3585 26.4917 13.5022 25.9503 13.7554C25.4375 13.9953 24.9382 14.4094 24.9382 15C24.9382 15.5906 25.4375 16.0048 25.9503 16.2446C26.4917 16.4978 27.2061 16.6415 27.9691 16.6415C28.7321 16.6415 29.4465 16.4978 29.9879 16.2446C30.5007 16.0048 31 15.5906 31 15C31 14.4094 30.5007 13.9953 29.9879 13.7554Z" fill="#231C09"/>
<path fill-rule="evenodd" clip-rule="evenodd" d="M21.1087 13.9904C21.7016 13.9906 22.1826 14.4406 22.1829 14.9953C22.1831 15.5497 21.703 15.9988 21.1104 15.9986L19.8688 15.9981C19.6045 15.998 19.3902 16.1984 19.3901 16.4456C19.3899 16.6929 19.6041 16.8934 19.8684 16.8935L21.11 16.894C22.2315 16.8944 23.1405 16.0441 23.14 14.9949C23.1395 13.946 22.2303 13.0954 21.1091 13.095L19.8917 13.0945C19.6274 13.0944 19.413 13.2948 19.4129 13.542C19.4128 13.7893 19.627 13.9898 19.8913 13.9899L21.1087 13.9904Z" fill="#231C09"/>
<path fill-rule="evenodd" clip-rule="evenodd" d="M15.0257 28.1528C15.2312 28.5373 15.4265 28.6046 15.5 28.6046C15.5735 28.6046 15.7688 28.5373 15.9743 28.1528C16.1655 27.795 16.2976 27.2695 16.2976 26.6646C16.2976 26.0597 16.1655 25.5342 15.9743 25.1765C15.7688 24.792 15.5735 24.7246 15.5 24.7246C15.4265 24.7246 15.2312 24.792 15.0257 25.1765C14.8345 25.5342 14.7024 26.0597 14.7024 26.6646C14.7024 27.2695 14.8345 27.795 15.0257 28.1528ZM14.1696 28.5532C13.8989 28.0467 13.7453 27.3784 13.7453 26.6646C13.7453 25.9509 13.8989 25.2825 14.1696 24.7761C14.4259 24.2964 14.8687 23.8293 15.5 23.8293C16.1313 23.8293 16.574 24.2964 16.8304 24.7761C17.1011 25.2825 17.2547 25.9509 17.2547 26.6646C17.2547 27.3784 17.1011 28.0467 16.8304 28.5532C16.574 29.0329 16.1313 29.5 15.5 29.5C14.8687 29.5 14.4259 29.0329 14.1696 28.5532Z" fill="#231C09"/>
<path fill-rule="evenodd" clip-rule="evenodd" d="M14.4207 20.2468C14.421 20.8015 14.902 21.2515 15.4949 21.2517C16.0876 21.2519 16.5677 20.8028 16.5674 20.2484L16.5669 19.0869C16.5668 18.8397 16.781 18.6392 17.0453 18.6391C17.3096 18.639 17.5239 18.8393 17.524 19.0866L17.5246 20.248C17.525 21.2972 16.6161 22.1475 15.4945 22.1471C14.3733 22.1466 13.4641 21.2961 13.4636 20.2472L13.4631 19.1083C13.463 18.8611 13.6771 18.6606 13.9414 18.6605C14.2057 18.6604 14.4201 18.8607 14.4202 19.108L14.4207 20.2468Z" fill="#231C09"/>
</svg>
