<svg width="200" height="25" viewBox="0 0 200 25" fill="none" xmlns="http://www.w3.org/2000/svg">
<path fill-rule="evenodd" clip-rule="evenodd" d="M23.6146 0.79926C23.7006 0.885229 23.7389 1.0079 23.7172 1.12752L23.0185 4.96996C23.0171 4.97787 23.0154 4.98574 23.0135 4.99354C22.8176 5.7771 22.2186 6.71148 21.3161 7.18754C20.857 7.42972 20.3187 7.55277 19.7252 7.47142C19.2169 7.40176 18.6867 7.1849 18.1445 6.79333L17.5017 7.4362C17.357 7.58089 17.1224 7.58089 16.9777 7.4362C16.833 7.29151 16.833 7.05692 16.9777 6.91223L17.6184 6.27149C17.195 5.70011 16.9557 5.14871 16.8724 4.62541C16.7757 4.01734 16.8937 3.47091 17.1429 3.00942C17.6322 2.10368 18.6136 1.54216 19.4449 1.39518L23.2864 0.696719C23.406 0.67497 23.5287 0.713291 23.6146 0.79926ZM18.6765 6.26138C19.0989 6.54816 19.4842 6.69047 19.8258 6.73728C20.2518 6.79566 20.6348 6.70911 20.9704 6.53212C21.653 6.17204 22.1353 5.43653 22.2917 4.82504L22.7759 2.16191L20.23 4.70784H21.0821C21.2867 4.70784 21.4526 4.87372 21.4526 5.07834C21.4526 5.28296 21.2867 5.44884 21.0821 5.44884L19.489 5.44884L18.6765 6.26138ZM19.7061 4.18387L22.252 1.63794L19.5746 2.12474C18.9214 2.24 18.1569 2.6914 17.7949 3.36159C17.6185 3.68823 17.5345 4.07075 17.6042 4.50898C17.6614 4.86869 17.8249 5.28128 18.1491 5.74086L18.9651 4.92487V3.33178C18.9651 3.12715 19.1309 2.96127 19.3356 2.96127C19.5402 2.96127 19.7061 3.12715 19.7061 3.33178V4.18387Z" fill="#25292C"/>
<path fill-rule="evenodd" clip-rule="evenodd" d="M0.415712 24.0589C0.501681 24.1449 0.624356 24.1832 0.743973 24.1615L4.5864 23.4628C4.59432 23.4614 4.60218 23.4597 4.60999 23.4578C5.39355 23.2619 6.32792 22.6629 6.80398 21.7604C7.04617 21.3012 7.16921 20.763 7.08786 20.1695C7.0182 19.6612 6.80134 19.131 6.40978 18.5888L7.05264 17.946C7.19733 17.8013 7.19733 17.5667 7.05264 17.422C6.90795 17.2773 6.67336 17.2773 6.52867 17.422L5.88794 18.0627C5.31655 17.6392 4.76515 17.4 4.24186 17.3167C3.63379 17.22 3.08736 17.3379 2.62586 17.5872C1.72013 18.0765 1.15861 19.0579 1.01163 19.8891L0.313171 23.7307C0.291422 23.8503 0.329743 23.9729 0.415712 24.0589ZM5.87782 19.1208C6.1646 19.5432 6.30691 19.9285 6.35372 20.2701C6.4121 20.696 6.32556 21.0791 6.14857 21.4147C5.78848 22.0973 5.05298 22.5796 4.44149 22.736L1.77836 23.2202L4.32428 20.6743V21.5264C4.32428 21.731 4.49016 21.8969 4.69478 21.8969C4.89941 21.8969 5.06529 21.731 5.06529 21.5264L5.06529 19.9333L5.87782 19.1208ZM3.80032 20.1503L1.25439 22.6963L1.74119 20.0189C1.85645 19.3657 2.30785 18.6012 2.97804 18.2392C3.30467 18.0627 3.6872 17.9788 4.12543 18.0485C4.48513 18.1057 4.89773 18.2692 5.35731 18.5934L4.54132 19.4093H2.94822C2.7436 19.4093 2.57772 19.5752 2.57772 19.7798C2.57772 19.9845 2.7436 20.1503 2.94822 20.1503H3.80032Z" fill="#25292C"/>
<path fill-rule="evenodd" clip-rule="evenodd" d="M23.5843 24.0589C23.4983 24.1449 23.3756 24.1832 23.256 24.1615L19.4136 23.4628C19.4057 23.4614 19.3978 23.4597 19.39 23.4578C18.6065 23.2619 17.6721 22.6629 17.196 21.7604C16.9538 21.3012 16.8308 20.763 16.9121 20.1695C16.9818 19.6612 17.1987 19.131 17.5902 18.5888L16.9474 17.946C16.8027 17.8013 16.8027 17.5667 16.9474 17.422C17.0921 17.2773 17.3266 17.2773 17.4713 17.422L18.1121 18.0627C18.6834 17.6392 19.2348 17.4 19.7581 17.3167C20.3662 17.22 20.9126 17.3379 21.3741 17.5872C22.2799 18.0765 22.8414 19.0579 22.9884 19.8891L23.6868 23.7307C23.7086 23.8503 23.6703 23.9729 23.5843 24.0589ZM18.1222 19.1208C17.8354 19.5432 17.6931 19.9285 17.6463 20.2701C17.5879 20.696 17.6744 21.0791 17.8514 21.4147C18.2115 22.0973 18.947 22.5795 19.5585 22.736L22.2216 23.2202L19.6757 20.6743V21.5264C19.6757 21.731 19.5098 21.8969 19.3052 21.8969C19.1006 21.8969 18.9347 21.731 18.9347 21.5264V19.9333L18.1222 19.1208ZM20.1997 20.1503L22.7456 22.6963L22.2588 20.0189C22.1435 19.3657 21.6921 18.6012 21.022 18.2392C20.6953 18.0627 20.3128 17.9788 19.8746 18.0485C19.5149 18.1057 19.1023 18.2692 18.6427 18.5933L19.4587 19.4093H21.0518C21.2564 19.4093 21.4223 19.5752 21.4223 19.7798C21.4223 19.9845 21.2564 20.1503 21.0518 20.1503H20.1997Z" fill="#25292C"/>
<path fill-rule="evenodd" clip-rule="evenodd" d="M0.355035 0.829592C0.269066 0.915561 0.230745 1.03824 0.252494 1.15785L0.951118 5.00029C0.952557 5.0082 0.954253 5.01607 0.956204 5.02387C1.15209 5.80743 1.75103 6.74181 2.65356 7.21787C3.1127 7.46006 3.65092 7.5831 4.2445 7.50175C4.7528 7.43209 5.28299 7.21523 5.82513 6.82367L6.46799 7.46653C6.61268 7.61122 6.84727 7.61122 6.99196 7.46653C7.13665 7.32184 7.13665 7.08725 6.99196 6.94256L6.35123 6.30182C6.7747 5.73044 7.01398 5.17904 7.09724 4.65574C7.19399 4.04767 7.07601 3.50124 6.82673 3.03975C6.33748 2.13401 5.35602 1.57249 4.52481 1.42551L0.683296 0.727051C0.563679 0.705302 0.441004 0.743624 0.355035 0.829592ZM5.29318 6.29171C4.87071 6.57849 4.48546 6.7208 4.14389 6.76761C3.71791 6.82599 3.33482 6.73944 2.99927 6.56246C2.31661 6.20237 1.8344 5.46686 1.67792 4.85537L1.19372 2.19224L3.73964 4.73817H2.88755C2.68292 4.73817 2.51704 4.90405 2.51705 5.10867C2.51704 5.31329 2.68292 5.47917 2.88755 5.47917L4.48064 5.47917L5.29318 6.29171ZM4.26361 4.2142L1.71768 1.66827L4.39506 2.15507C5.04822 2.27033 5.81275 2.72174 6.17476 3.39192C6.3512 3.71856 6.43517 4.10108 6.36544 4.53931C6.30821 4.89902 6.14479 5.31162 5.8206 5.77119L5.00461 4.9552V3.36211C5.00461 3.15749 4.83873 2.99161 4.63411 2.99161C4.42948 2.99161 4.26361 3.15749 4.26361 3.36211V4.2142Z" fill="#25292C"/>
<path fill-rule="evenodd" clip-rule="evenodd" d="M12.6113 11.8027C12.2737 11.465 11.7263 11.465 11.3887 11.8027C11.0511 12.1403 11.0511 12.6876 11.3887 13.0252C11.7263 13.3629 12.2737 13.3629 12.6113 13.0252C12.9489 12.6876 12.9489 12.1403 12.6113 11.8027ZM10.8647 11.2787C11.4917 10.6517 12.5083 10.6517 13.1353 11.2787C13.7623 11.9057 13.7623 12.9222 13.1353 13.5492C12.5083 14.1762 11.4917 14.1762 10.8647 13.5492C10.2377 12.9222 10.2377 11.9057 10.8647 11.2787Z" fill="#25292C"/>
<path fill-rule="evenodd" clip-rule="evenodd" d="M14.1832 10.2308C14.3279 10.3755 14.3279 10.61 14.1832 10.7547L13.1353 11.8027C12.9906 11.9474 12.756 11.9473 12.6113 11.8027C12.4666 11.658 12.4666 11.4234 12.6113 11.2787L13.6592 10.2308C13.8039 10.0861 14.0385 10.0861 14.1832 10.2308Z" fill="#25292C"/>
<path fill-rule="evenodd" clip-rule="evenodd" d="M11.3887 13.0252C11.5334 13.1699 11.5334 13.4045 11.3887 13.5492L10.3408 14.5972C10.1961 14.7419 9.96149 14.7419 9.8168 14.5972C9.67211 14.4525 9.67211 14.2179 9.8168 14.0732L10.8647 13.0253C11.0094 12.8806 11.244 12.8806 11.3887 13.0252Z" fill="#25292C"/>
<path fill-rule="evenodd" clip-rule="evenodd" d="M12.6113 13.0252C12.756 12.8806 12.9906 12.8806 13.1353 13.0253L14.1832 14.0732C14.3279 14.2179 14.3279 14.4525 14.1832 14.5972C14.0385 14.7419 13.8039 14.7419 13.6592 14.5972L12.6113 13.5492C12.4666 13.4046 12.4666 13.1699 12.6113 13.0252Z" fill="#25292C"/>
<path fill-rule="evenodd" clip-rule="evenodd" d="M9.81681 10.2308C9.9615 10.0861 10.1961 10.0861 10.3408 10.2308L11.3887 11.2787C11.5334 11.4234 11.5334 11.658 11.3887 11.8027C11.244 11.9473 11.0094 11.9474 10.8647 11.8027L9.81681 10.7547C9.67212 10.61 9.67212 10.3755 9.81681 10.2308Z" fill="#25292C"/>
<path fill-rule="evenodd" clip-rule="evenodd" d="M14.0187 13.3936C13.6016 13.2994 13.3031 13.3814 13.1353 13.5492C12.9675 13.717 12.8855 14.0155 12.9797 14.4326C13.0726 14.8442 13.3301 15.316 13.7466 15.7324C14.163 16.1489 14.6348 16.4064 15.0464 16.4993C15.4634 16.5935 15.762 16.5115 15.9298 16.3437C16.0975 16.1759 16.1795 15.8774 16.0854 15.4603C15.9924 15.0487 15.7349 14.577 15.3185 14.1605C14.902 13.7441 14.4303 13.4866 14.0187 13.3936ZM14.1819 12.6708C14.7501 12.7991 15.3425 13.1366 15.8424 13.6366C16.3424 14.1365 16.6799 14.7289 16.8082 15.2971C16.9352 15.8599 16.8647 16.4567 16.4537 16.8677C16.0428 17.2787 15.4459 17.3492 14.8832 17.2221C14.315 17.0938 13.7225 16.7563 13.2226 16.2564C12.7226 15.7565 12.3852 15.164 12.2569 14.5958C12.1298 14.0331 12.2003 13.4362 12.6113 13.0252C13.0223 12.6143 13.6191 12.5437 14.1819 12.6708Z" fill="#25292C"/>
<path fill-rule="evenodd" clip-rule="evenodd" d="M11.0203 14.4326C11.1145 14.0155 11.0325 13.717 10.8647 13.5492C10.697 13.3814 10.3984 13.2994 9.98134 13.3936C9.56973 13.4865 9.09796 13.7441 8.68153 14.1605C8.2651 14.5769 8.00757 15.0487 7.91463 15.4603C7.82045 15.8774 7.90245 16.1759 8.07023 16.3437C8.23802 16.5115 8.53655 16.5935 8.95362 16.4993C9.36524 16.4064 9.83701 16.1488 10.2534 15.7324C10.6699 15.316 10.9274 14.8442 11.0203 14.4326ZM11.7431 14.5958C11.6148 15.164 11.2773 15.7564 10.7774 16.2564C10.2775 16.7563 9.68503 17.0938 9.11684 17.2221C8.55411 17.3492 7.95724 17.2786 7.54627 16.8677C7.13529 16.4567 7.06475 15.8598 7.19182 15.2971C7.32012 14.7289 7.65762 14.1365 8.15756 13.6365C8.6575 13.1366 9.24994 12.7991 9.81813 12.6708C10.3809 12.5437 10.9777 12.6143 11.3887 13.0252C11.7997 13.4362 11.8702 14.0331 11.7431 14.5958Z" fill="#25292C"/>
<path fill-rule="evenodd" clip-rule="evenodd" d="M16.0854 9.36755C16.1795 8.95047 16.0975 8.65194 15.9298 8.48416C15.762 8.31637 15.4634 8.23437 15.0464 8.32855C14.6348 8.42149 14.163 8.67903 13.7466 9.09545C13.3301 9.51188 13.0726 9.98365 12.9797 10.3953C12.8855 10.8123 12.9675 11.1109 13.1353 11.2787C13.3031 11.4465 13.6016 11.5284 14.0186 11.4343C14.4303 11.3413 14.902 11.0838 15.3185 10.6674C15.7349 10.2509 15.9924 9.77916 16.0854 9.36755ZM16.8082 9.53076C16.6799 10.099 16.3424 10.6914 15.8424 11.1913C15.3425 11.6913 14.7501 12.0288 14.1819 12.1571C13.6191 12.2841 13.0223 12.2136 12.6113 11.8027C12.2003 11.3917 12.1298 10.7948 12.2568 10.2321C12.3851 9.66386 12.7226 9.07143 13.2226 8.57148C13.7225 8.07154 14.315 7.73405 14.8832 7.60574C15.4459 7.47868 16.0427 7.54921 16.4537 7.96019C16.8647 8.37116 16.9352 8.96803 16.8082 9.53076Z" fill="#25292C"/>
<path fill-rule="evenodd" clip-rule="evenodd" d="M8.95363 8.32859C8.53656 8.23441 8.23803 8.31641 8.07024 8.4842C7.90246 8.65198 7.82046 8.95051 7.91464 9.36759C8.00758 9.7792 8.26511 10.251 8.68154 10.6674C9.09797 11.0838 9.56974 11.3414 9.98135 11.4343C10.3984 11.5285 10.697 11.4465 10.8647 11.2787C11.0325 11.1109 11.1145 10.8124 11.0203 10.3953C10.9274 9.98369 10.6699 9.51192 10.2534 9.09549C9.83702 8.67906 9.36525 8.42153 8.95363 8.32859ZM9.11685 7.60578C9.68504 7.73408 10.2775 8.07158 10.7774 8.57152C11.2774 9.07147 11.6149 9.6639 11.7432 10.2321C11.8702 10.7948 11.7997 11.3917 11.3887 11.8027C10.9777 12.2136 10.3809 12.2842 9.81814 12.1571C9.24995 12.0288 8.65751 11.6913 8.15757 11.1914C7.65763 10.6914 7.32013 10.099 7.19183 9.5308C7.06477 8.96807 7.1353 8.3712 7.54628 7.96023C7.95725 7.54925 8.55412 7.47872 9.11685 7.60578Z" fill="#25292C"/>
<path fill-rule="evenodd" clip-rule="evenodd" d="M12.3672 1.61495C12.2081 1.29675 12.0569 1.241 12 1.241C11.9431 1.241 11.7919 1.29675 11.6328 1.61495C11.4847 1.911 11.3825 2.3459 11.3825 2.84651C11.3825 3.34712 11.4847 3.78203 11.6328 4.07807C11.7919 4.39627 11.9431 4.45202 12 4.45202C12.0569 4.45202 12.2081 4.39627 12.3672 4.07807C12.5153 3.78203 12.6175 3.34712 12.6175 2.84651C12.6175 2.3459 12.5153 1.911 12.3672 1.61495ZM13.03 1.28357C13.2396 1.7027 13.3585 2.2558 13.3585 2.84651C13.3585 3.43722 13.2396 3.99032 13.03 4.40945C12.8315 4.80643 12.4888 5.19302 12 5.19302C11.5112 5.19302 11.1685 4.80643 10.97 4.40945C10.7604 3.99032 10.6415 3.43722 10.6415 2.84651C10.6415 2.2558 10.7604 1.7027 10.97 1.28357C11.1685 0.886595 11.5112 0.5 12 0.5C12.4888 0.5 12.8315 0.886595 13.03 1.28357Z" fill="#25292C"/>
<path fill-rule="evenodd" clip-rule="evenodd" d="M12.8356 8.15783C12.8354 7.69876 12.463 7.32637 12.0039 7.32617C11.5451 7.32598 11.1734 7.69768 11.1736 8.15651L11.174 9.1177C11.1741 9.32232 11.0083 9.48827 10.8036 9.48836C10.599 9.48845 10.4331 9.32264 10.433 9.11801L10.4326 8.15682C10.4322 7.28851 11.1359 6.5848 12.0042 6.58517C12.8723 6.58553 13.5762 7.28945 13.5766 8.15752L13.577 9.1C13.5771 9.30462 13.4113 9.47057 13.2066 9.47066C13.002 9.47074 12.8361 9.30493 12.836 9.10031L12.8356 8.15783Z" fill="#25292C"/>
<path fill-rule="evenodd" clip-rule="evenodd" d="M1.11495 12.8672C0.796753 12.7081 0.741003 12.5569 0.741003 12.5C0.741003 12.4431 0.796753 12.2919 1.11495 12.1327C1.41099 11.9847 1.8459 11.8825 2.34651 11.8825C2.84712 11.8825 3.28202 11.9847 3.57806 12.1327C3.89626 12.2919 3.95201 12.4431 3.95201 12.5C3.95201 12.5569 3.89626 12.7081 3.57806 12.8672C3.28202 13.0152 2.84712 13.1175 2.34651 13.1175C1.8459 13.1175 1.41099 13.0152 1.11495 12.8672ZM0.783567 13.53C1.2027 13.7396 1.7558 13.8585 2.34651 13.8585C2.93721 13.8585 3.49032 13.7396 3.90945 13.53C4.30642 13.3315 4.69302 12.9888 4.69302 12.5C4.69302 12.0112 4.30642 11.6685 3.90945 11.47C3.49032 11.2604 2.93721 11.1415 2.34651 11.1415C1.7558 11.1415 1.2027 11.2604 0.783567 11.47C0.386594 11.6685 0 12.0112 0 12.5C0 12.9888 0.386594 13.3315 0.783567 13.53Z" fill="#25292C"/>
<path fill-rule="evenodd" clip-rule="evenodd" d="M7.65782 13.3356C7.19875 13.3354 6.82636 12.963 6.82616 12.5039C6.82597 12.0451 7.19767 11.6734 7.6565 11.6736L8.61769 11.674C8.82231 11.6741 8.98826 11.5083 8.98835 11.3036C8.98843 11.099 8.82262 10.9331 8.618 10.933L7.65681 10.9326C6.7885 10.9322 6.0848 11.6359 6.08516 12.5042C6.08553 13.3723 6.78944 14.0762 7.6575 14.0766L8.59999 14.077C8.80461 14.077 8.97056 13.9112 8.97064 13.7066C8.97073 13.502 8.80492 13.336 8.6003 13.336L7.65782 13.3356Z" fill="#25292C"/>
<path fill-rule="evenodd" clip-rule="evenodd" d="M22.885 12.1328C23.2032 12.2919 23.259 12.4431 23.259 12.5C23.259 12.5569 23.2032 12.7082 22.885 12.8673C22.589 13.0153 22.1541 13.1175 21.6535 13.1175C21.1529 13.1175 20.718 13.0153 20.4219 12.8673C20.1037 12.7082 20.048 12.5569 20.048 12.5C20.048 12.4431 20.1037 12.2919 20.4219 12.1328C20.718 11.9848 21.1529 11.8825 21.6535 11.8825C22.1541 11.8825 22.589 11.9848 22.885 12.1328ZM23.2164 11.47C22.7973 11.2604 22.2442 11.1415 21.6535 11.1415C21.0628 11.1415 20.5097 11.2604 20.0906 11.47C19.6936 11.6685 19.307 12.0112 19.307 12.5C19.307 12.9888 19.6936 13.3315 20.0906 13.53C20.5097 13.7396 21.0628 13.8585 21.6535 13.8585C22.2442 13.8585 22.7973 13.7396 23.2164 13.53C23.6134 13.3315 24 12.9888 24 12.5C24 12.0112 23.6134 11.6685 23.2164 11.47Z" fill="#25292C"/>
<path fill-rule="evenodd" clip-rule="evenodd" d="M16.3422 11.6644C16.8013 11.6646 17.1736 12.037 17.1738 12.4961C17.174 12.9549 16.8023 13.3266 16.3435 13.3264L15.3823 13.326C15.1777 13.3259 15.0117 13.4917 15.0117 13.6964C15.0116 13.901 15.1774 14.0669 15.382 14.067L16.3432 14.0674C17.2115 14.0678 17.9152 13.3641 17.9148 12.4958C17.9145 11.6277 17.2106 10.9238 16.3425 10.9234L15.4 10.923C15.1954 10.923 15.0294 11.0888 15.0294 11.2934C15.0293 11.498 15.1951 11.664 15.3997 11.664L16.3422 11.6644Z" fill="#25292C"/>
<path fill-rule="evenodd" clip-rule="evenodd" d="M11.6328 23.385C11.7919 23.7032 11.9431 23.759 12 23.759C12.0569 23.759 12.2081 23.7032 12.3672 23.385C12.5153 23.089 12.6175 22.6541 12.6175 22.1535C12.6175 21.6529 12.5153 21.218 12.3672 20.9219C12.2081 20.6037 12.0569 20.548 12 20.548C11.9431 20.548 11.7919 20.6037 11.6328 20.9219C11.4847 21.218 11.3825 21.6529 11.3825 22.1535C11.3825 22.6541 11.4847 23.089 11.6328 23.385ZM10.97 23.7164C10.7604 23.2973 10.6415 22.7442 10.6415 22.1535C10.6415 21.5628 10.7604 21.0097 10.97 20.5905C11.1685 20.1936 11.5112 19.807 12 19.807C12.4888 19.807 12.8315 20.1936 13.03 20.5905C13.2396 21.0097 13.3585 21.5628 13.3585 22.1535C13.3585 22.7442 13.2396 23.2973 13.03 23.7164C12.8315 24.1134 12.4888 24.5 12 24.5C11.5112 24.5 11.1685 24.1134 10.97 23.7164Z" fill="#25292C"/>
<path fill-rule="evenodd" clip-rule="evenodd" d="M11.1644 16.8422C11.1646 17.3012 11.537 17.6736 11.9961 17.6738C12.4549 17.674 12.8266 17.3023 12.8264 16.8435L12.826 15.8823C12.8259 15.6777 12.9917 15.5117 13.1963 15.5116C13.401 15.5116 13.5669 15.6774 13.567 15.882L13.5674 16.8432C13.5678 17.7115 12.8641 18.4152 11.9958 18.4148C11.1277 18.4145 10.4238 17.7106 10.4234 16.8425L10.423 15.9C10.4229 15.6954 10.5887 15.5294 10.7934 15.5293C10.998 15.5293 11.1639 15.6951 11.164 15.8997L11.1644 16.8422Z" fill="#25292C"/>
<path d="M187.859 21.5886V3.40674H199.259V5.76824H190.603V11.308H198.664V13.6606H190.603V19.2271H199.365V21.5886H187.859Z" fill="#25292C"/>
<path d="M181.438 9.15319C181.266 8.6146 181.035 8.13224 180.745 7.7061C180.461 7.27404 180.121 6.90709 179.724 6.60525C179.328 6.29748 178.875 6.0637 178.366 5.9039C177.863 5.7441 177.309 5.6642 176.706 5.6642C175.682 5.6642 174.758 5.92757 173.936 6.45432C173.113 6.98108 172.462 7.75345 171.983 8.77144C171.509 9.78351 171.272 11.0235 171.272 12.4913C171.272 13.965 171.512 15.2108 171.991 16.2288C172.471 17.2468 173.128 18.0192 173.962 18.5459C174.797 19.0727 175.747 19.3361 176.812 19.3361C177.801 19.3361 178.662 19.1348 179.396 18.7324C180.135 18.3299 180.707 17.7617 181.109 17.0278C181.517 16.288 181.722 15.418 181.722 14.4177L182.432 14.5509H177.229V12.2871H184.376V14.3556C184.376 15.8826 184.051 17.2083 183.4 18.3329C182.754 19.4515 181.861 20.3156 180.718 20.9252C179.582 21.5348 178.28 21.8396 176.812 21.8396C175.167 21.8396 173.723 21.4608 172.48 20.7033C171.243 19.9457 170.278 18.8715 169.586 17.4806C168.893 16.0838 168.547 14.4266 168.547 12.509C168.547 11.059 168.748 9.75688 169.151 8.60276C169.553 7.44864 170.118 6.46912 170.846 5.6642C171.58 4.85335 172.441 4.23486 173.43 3.80873C174.424 3.37667 175.51 3.16064 176.688 3.16064C177.67 3.16064 178.585 3.30565 179.431 3.59566C180.283 3.88567 181.041 4.29701 181.704 4.82968C182.373 5.36235 182.926 5.99564 183.364 6.72954C183.802 7.45752 184.098 8.2654 184.252 9.15319H181.438Z" fill="#25292C"/>
<path d="M153.02 21.5886V3.40674H159.5C160.909 3.40674 162.078 3.6494 163.007 4.13472C163.942 4.62004 164.641 5.2918 165.102 6.14999C165.564 7.00226 165.795 7.98771 165.795 9.10631C165.795 10.219 165.561 11.1985 165.093 12.0449C164.632 12.8853 163.933 13.5393 162.998 14.0069C162.069 14.4744 160.9 14.7082 159.491 14.7082H154.582V12.3467H159.243C160.131 12.3467 160.853 12.2195 161.409 11.965C161.971 11.7105 162.383 11.3406 162.643 10.8552C162.904 10.3699 163.034 9.78695 163.034 9.10631C163.034 8.41976 162.901 7.82494 162.634 7.32187C162.374 6.81879 161.962 6.43408 161.4 6.16775C160.844 5.89549 160.113 5.75937 159.207 5.75937H155.763V21.5886H153.02ZM161.995 13.3854L166.487 21.5886H163.362L158.959 13.3854H161.995Z" fill="#25292C"/>
<path d="M137.957 21.5886V3.40674H149.356V5.76824H140.7V11.308H148.761V13.6606H140.7V19.2271H149.463V21.5886H137.957Z" fill="#25292C"/>
<path d="M115.52 3.40674H118.849L124.637 17.5403H124.85L130.638 3.40674H133.968V21.5886H131.358V8.4316H131.189L125.827 21.5619H123.661L118.298 8.42272H118.13V21.5886H115.52V3.40674Z" fill="#25292C"/>
<path d="M98.3398 5.76824V3.40674H112.411V5.76824H106.738V21.5886H104.004V5.76824H98.3398Z" fill="#25292C"/>
<path d="M84.5859 21.5886V3.40674H95.8608V5.76824H87.3292V11.308H95.0529V13.6606H87.3292V21.5886H84.5859Z" fill="#25292C"/>
<path d="M68.619 21.5886H65.707L72.25 3.40674H75.4194L81.9624 21.5886H79.0504L73.9102 6.70929H73.7681L68.619 21.5886ZM69.1072 14.4685H78.5533V16.7768H69.1072V14.4685Z" fill="#25292C"/>
<path d="M50.9688 21.5886V3.40674H57.4496C58.8582 3.40674 60.0271 3.6494 60.9563 4.13472C61.8915 4.62004 62.5898 5.2918 63.0515 6.14999C63.5131 7.00226 63.744 7.98771 63.744 9.10631C63.744 10.219 63.5102 11.1985 63.0426 12.0449C62.581 12.8853 61.8826 13.5393 60.9474 14.0069C60.0182 14.4744 58.8493 14.7082 57.4407 14.7082H52.5312V12.3467H57.1921C58.0799 12.3467 58.802 12.2195 59.3583 11.965C59.9206 11.7105 60.3319 11.3406 60.5923 10.8552C60.8527 10.3699 60.983 9.78695 60.983 9.10631C60.983 8.41976 60.8498 7.82494 60.5835 7.32187C60.323 6.81879 59.9117 6.43408 59.3494 6.16775C58.7931 5.89549 58.0621 5.75937 57.1566 5.75937H53.712V21.5886H50.9688ZM59.9442 13.3854L64.4364 21.5886H61.3114L56.908 13.3854H59.9442Z" fill="#25292C"/>
<path d="M47.6871 9.32187H44.9173C44.8107 8.73001 44.6125 8.20918 44.3224 7.75937C44.0324 7.30956 43.6773 6.92781 43.2571 6.61412C42.8369 6.30044 42.3664 6.0637 41.8455 5.9039C41.3306 5.7441 40.7831 5.6642 40.2031 5.6642C39.1555 5.6642 38.2174 5.92757 37.3888 6.45432C36.5662 6.98108 35.9151 7.75345 35.4357 8.77144C34.9622 9.78943 34.7255 11.0323 34.7255 12.5001C34.7255 13.9798 34.9622 15.2286 35.4357 16.2466C35.9151 17.2646 36.5691 18.034 37.3977 18.5548C38.2263 19.0757 39.1585 19.3361 40.1942 19.3361C40.7683 19.3361 41.3129 19.2591 41.8278 19.1052C42.3486 18.9454 42.8191 18.7117 43.2393 18.4039C43.6596 18.0961 44.0147 17.7203 44.3047 17.2764C44.6006 16.8266 44.8048 16.3117 44.9173 15.7317L47.6871 15.7405C47.5392 16.6342 47.2521 17.4569 46.826 18.2086C46.4058 18.9543 45.8642 19.5994 45.2013 20.144C44.5444 20.6825 43.7927 21.0998 42.9464 21.3957C42.1 21.6917 41.1767 21.8396 40.1765 21.8396C38.6022 21.8396 37.1995 21.4668 35.9684 20.721C34.7373 19.9694 33.7667 18.8951 33.0565 17.4984C32.3522 16.1016 32 14.4355 32 12.5001C32 10.5588 32.3551 8.89277 33.0653 7.50191C33.7756 6.10513 34.7462 5.03387 35.9773 4.28813C37.2083 3.53647 38.6081 3.16064 40.1765 3.16064C41.1412 3.16064 42.0408 3.29973 42.8754 3.5779C43.7158 3.85016 44.4704 4.25262 45.1392 4.78529C45.808 5.31204 46.3614 5.95717 46.7994 6.72066C47.2373 7.47823 47.5333 8.3453 47.6871 9.32187Z" fill="#25292C"/>
</svg>
