<svg viewBox="0 0 16 16" fill="none" xmlns="http://www.w3.org/2000/svg">
<g id="icon-wrapper">
<path id="Union" d="M15.1022 14.1188L10.4647 9.48129C11.1844 8.55093 11.5737 7.41343 11.5737 6.21701C11.5737 4.78486 11.0147 3.44201 10.004 2.42951C8.9933 1.41701 7.64688 0.859863 6.21652 0.859863C4.78616 0.859863 3.43973 1.41879 2.42902 2.42951C1.41652 3.44022 0.859375 4.78486 0.859375 6.21701C0.859375 7.64736 1.4183 8.99379 2.42902 10.0045C3.43973 11.017 4.78438 11.5741 6.21652 11.5741C7.41295 11.5741 8.54866 11.1849 9.47902 10.467L14.1165 15.1027C14.1301 15.1163 14.1463 15.1271 14.164 15.1345C14.1818 15.1418 14.2009 15.1456 14.2201 15.1456C14.2393 15.1456 14.2584 15.1418 14.2761 15.1345C14.2939 15.1271 14.3101 15.1163 14.3237 15.1027L15.1022 14.3259C15.1158 14.3123 15.1266 14.2962 15.134 14.2784C15.1414 14.2606 15.1452 14.2416 15.1452 14.2224C15.1452 14.2031 15.1414 14.1841 15.134 14.1663C15.1266 14.1485 15.1158 14.1324 15.1022 14.1188ZM9.04509 9.04558C8.28795 9.80094 7.28438 10.217 6.21652 10.217C5.14866 10.217 4.14509 9.80094 3.38795 9.04558C2.63259 8.28844 2.21652 7.28486 2.21652 6.21701C2.21652 5.14915 2.63259 4.14379 3.38795 3.38843C4.14509 2.63308 5.14866 2.21701 6.21652 2.21701C7.28438 2.21701 8.28973 2.63129 9.04509 3.38843C9.80045 4.14558 10.2165 5.14915 10.2165 6.21701C10.2165 7.28486 9.80045 8.29022 9.04509 9.04558Z" fill="black" fill-opacity="0.45"/>
</g>
</svg>
