<svg width="165" height="20" viewBox="0 0 165 20" fill="none" xmlns="http://www.w3.org/2000/svg">
<g clip-path="url(#clip0_1539_247)">
<path d="M8.54898 18.248C7.60061 19.1234 6.41515 19.5611 4.9926 19.5611C3.57005 19.5611 2.38003 19.1234 1.42255 18.248C0.474183 17.3635 0 16.2282 0 14.8421C0 13.456 0.474183 12.3253 1.42255 11.4499C2.38003 10.5653 3.57005 10.1231 4.9926 10.1231C6.41515 10.1231 7.60061 10.5653 8.54898 11.4499C9.50646 12.3253 9.9852 13.456 9.9852 14.8421C9.9852 16.2282 9.50646 17.3635 8.54898 18.248ZM3.40591 16.4698C3.81626 16.9075 4.34516 17.1264 4.9926 17.1264C5.64004 17.1264 6.16438 16.9075 6.56561 16.4698C6.97596 16.0321 7.18114 15.4895 7.18114 14.8421C7.18114 14.1946 6.97596 13.6521 6.56561 13.2144C6.16438 12.7767 5.64004 12.5578 4.9926 12.5578C4.34516 12.5578 3.81626 12.7767 3.40591 13.2144C3.00468 13.6521 2.80406 14.1946 2.80406 14.8421C2.80406 15.4895 3.00468 16.0321 3.40591 16.4698Z" fill="white"/>
<path d="M13.7279 19.397H10.9649V10.2735H15.8344C16.8648 10.2735 17.6673 10.5744 18.2418 11.1763C18.8254 11.769 19.1172 12.5122 19.1172 13.4059C19.1172 14.2904 18.8254 15.0336 18.2418 15.6354C17.6673 16.2282 16.8648 16.5245 15.8344 16.5245H13.7279V19.397ZM15.4788 14.1171C15.725 14.1171 15.9256 14.0579 16.0806 13.9393C16.2356 13.8116 16.3132 13.6338 16.3132 13.4059C16.3132 13.1688 16.2356 12.9909 16.0806 12.8724C15.9256 12.7447 15.725 12.6809 15.4788 12.6809H13.7279V14.1171H15.4788Z" fill="white"/>
<path d="M26.9427 19.397H20.0215V10.2735H26.9427V12.6809H22.7845V13.5837H26.847V15.9911H22.7845V16.9896H26.9427V19.397Z" fill="white"/>
<path d="M36.9512 19.397H34.2976L30.9328 14.7737V19.397H28.1697V10.2735H31.0148L34.1882 14.5959V10.2735H36.9512V19.397Z" fill="white"/>
<path d="M48.1033 19.397H45.3402V12.6809H42.8918V10.2735H50.538V12.6809H48.1033V19.397Z" fill="white"/>
<path d="M58.4404 19.397H51.5191V10.2735H58.4404V12.6809H54.2821V13.5837H58.3446V15.9911H54.2821V16.9896H58.4404V19.397Z" fill="white"/>
<path d="M64.1949 19.5611C62.7541 19.5611 61.555 19.1234 60.5975 18.248C59.6491 17.3635 59.1749 16.2282 59.1749 14.8421C59.1749 13.4469 59.6491 12.3116 60.5975 11.4362C61.5459 10.5608 62.745 10.1231 64.1949 10.1231C65.2892 10.1231 66.1691 10.3784 66.8348 10.889C67.5096 11.3997 68.0112 12.0289 68.3394 12.7767L65.9594 13.8846C65.8409 13.5198 65.6174 13.2098 65.2892 12.9545C64.9609 12.69 64.5961 12.5578 64.1949 12.5578C63.5383 12.5578 63.0049 12.7767 62.5945 13.2144C62.1842 13.6521 61.979 14.1946 61.979 14.8421C61.979 15.4895 62.1842 16.0321 62.5945 16.4698C63.0049 16.9075 63.5383 17.1264 64.1949 17.1264C64.5961 17.1264 64.9609 16.9987 65.2892 16.7434C65.6174 16.4789 65.8409 16.1643 65.9594 15.7996L68.3394 16.8938C68.1935 17.2312 68.0112 17.5458 67.7923 17.8376C67.5735 18.1203 67.2999 18.3985 66.9716 18.672C66.6433 18.9456 66.2375 19.1644 65.7542 19.3286C65.28 19.4836 64.7603 19.5611 64.1949 19.5611Z" fill="white"/>
<path d="M78 19.397H75.237V15.909H71.9678V19.397H69.2048V10.2735H71.9678V13.5016H75.237V10.2735H78V19.397Z" fill="white"/>
<path d="M39.3997 19.6706H37.6899L40.9317 10H42.6415L39.3997 19.6706Z" fill="#47A1CB"/>
<path fill-rule="evenodd" clip-rule="evenodd" d="M90.7869 13.9973C89.6979 13.572 88.7575 13.2049 88.7575 12.3575C88.7575 11.379 89.6486 11.0296 90.4829 11.0296C91.9256 11.0296 92.692 11.8271 92.6998 11.8349L92.7734 11.9137L93.419 10.8299L93.3796 10.7854C93.3424 10.7438 92.4478 9.76438 90.5193 9.76438C88.9835 9.76438 87.3308 10.5758 87.3308 12.358C87.3308 14.0427 88.8523 14.6454 90.1937 15.1771C91.2844 15.6092 92.2257 15.9825 92.2257 16.822C92.2257 17.7647 91.3506 18.1864 90.4829 18.1864C88.8428 18.1864 87.843 17.1213 87.8331 17.1104L87.7668 17.039L87 18.0552L87.0433 18.105C87.0563 18.1184 87.3477 18.4483 87.9179 18.7809C88.441 19.087 89.3078 19.452 90.4648 19.452C92.3123 19.452 93.6533 18.3457 93.6533 16.822C93.6533 15.1161 92.13 14.5212 90.7869 13.9973ZM103.471 14.5632C103.471 16.5952 101.951 18.1864 100.011 18.1864C98.0723 18.1864 96.5525 16.5952 96.5525 14.5636C96.5525 12.5913 98.0723 11.0477 100.012 11.0477C101.951 11.0477 103.471 12.5913 103.471 14.5636L103.471 14.5632ZM100.011 9.76485C97.2722 9.76485 95.1258 11.8726 95.1258 14.564C95.1258 17.3048 97.2722 19.4525 100.012 19.4525C102.752 19.4525 104.898 17.3048 104.898 14.564C104.898 11.8726 102.752 9.76485 100.012 9.76485H100.011ZM110.942 6.33686C110.752 6.31013 110.56 6.29782 110.369 6.30006C109.4 6.30006 107.149 6.63649 107.149 9.75618V10.1082H105.911V11.2998H107.149V19.242H108.538V11.2998H110.865V10.1077H108.538V9.75572C108.538 8.93697 108.793 7.56265 110.495 7.56265C110.735 7.56265 110.911 7.59728 110.913 7.59728L111.009 7.61677V6.34856L110.942 6.33643V6.33686ZM117.499 18.1145L117.399 18.1362C117.265 18.1612 117.13 18.173 116.994 18.1712C116.248 18.1712 114.997 17.8638 114.997 15.8058V11.3253H117.316V10.1108H114.997V7.44055H113.598V10.1103H112.366V11.3248H113.58V15.934C113.58 19.0017 115.649 19.4598 116.883 19.4598C117.218 19.4598 117.423 19.4235 117.431 19.4217L117.499 19.4095V18.114V18.1145ZM120.326 16.4843C120.326 16.4843 121.341 17.5006 122.846 17.5006C123.499 17.5006 124.06 17.2105 124.06 16.6662C124.06 15.2871 119.564 15.4685 119.564 12.4935C119.564 10.7702 121.105 9.77173 123.099 9.77173C125.185 9.77173 126.2 10.8239 126.2 10.8239L125.348 12.5298C125.348 12.5298 124.496 11.7314 123.082 11.7314C122.483 11.7314 121.903 11.9852 121.903 12.5658C121.903 13.8721 126.4 13.7088 126.4 16.6835C126.4 18.2258 125.058 19.459 122.864 19.459C120.561 19.459 119.273 18.0985 119.273 18.0985L120.326 16.4843ZM134.382 13.4733C134.345 12.2212 133.565 11.5496 132.55 11.5496C131.372 11.5496 130.556 12.2757 130.338 13.4733H134.382ZM132.605 9.77173C135.27 9.77173 136.702 11.7128 136.702 14.1622C136.702 14.4342 136.648 15.0516 136.648 15.0516H130.266C130.411 16.6666 131.662 17.5006 133.04 17.5006C134.527 17.5006 135.705 16.4843 135.705 16.4843L136.594 18.1357C136.594 18.1357 135.179 19.4593 132.877 19.4593C129.812 19.4593 127.908 17.2468 127.908 14.616C127.908 11.7678 129.849 9.77173 132.605 9.77173ZM139.02 9.98999H141.232V11.5864C141.232 11.9306 141.196 12.2393 141.196 12.2393H141.232C141.649 10.9152 142.755 9.86268 144.169 9.86268C144.387 9.86268 144.586 9.89903 144.586 9.89903V12.167C144.586 12.167 144.351 12.1307 144.042 12.1307C143.063 12.1307 141.957 12.6926 141.522 14.0717C141.377 14.525 141.323 15.033 141.323 15.5772V19.242H139.02V9.98999ZM145.589 9.98999H148.019L149.941 15.7222C150.122 16.267 150.249 16.8818 150.266 16.8818H150.303C150.321 16.8818 150.448 16.267 150.629 15.7222L152.552 9.98953H154.981L151.663 19.242H148.943L145.589 9.98999ZM162.021 13.4733C161.985 12.2212 161.206 11.5496 160.19 11.5496C159.012 11.5496 158.195 12.2757 157.978 13.4733H162.021ZM160.245 9.77173C162.91 9.77173 164.343 11.7128 164.343 14.1622C164.343 14.4342 164.288 15.0516 164.288 15.0516H157.906C158.051 16.6666 159.302 17.5006 160.68 17.5006C162.166 17.5006 163.345 16.4843 163.345 16.4843L164.234 18.1357C164.234 18.1357 162.819 19.4593 160.517 19.4593C157.453 19.4593 155.549 17.2468 155.549 14.616C155.549 11.7678 157.489 9.77173 160.245 9.77173Z" fill="white"/>
<rect x="82" y="10" width="1" height="10" fill="#AFAFAF"/>
<path d="M0.592 6H1.392V3.944H2.84C3.928 3.944 4.544 3.192 4.544 2.304C4.544 1.416 3.936 0.664 2.84 0.664H0.592V6ZM3.72 2.304C3.72 2.864 3.312 3.24 2.736 3.24H1.392V1.368H2.736C3.312 1.368 3.72 1.744 3.72 2.304ZM6.95206 6.096C8.16006 6.096 8.90406 5.184 8.90406 4.064C8.90406 2.952 8.16006 2.04 6.95206 2.04C5.75206 2.04 5.00006 2.952 5.00006 4.064C5.00006 5.184 5.75206 6.096 6.95206 6.096ZM6.95206 5.456C6.18406 5.456 5.75206 4.8 5.75206 4.064C5.75206 3.336 6.18406 2.68 6.95206 2.68C7.72806 2.68 8.15206 3.336 8.15206 4.064C8.15206 4.8 7.72806 5.456 6.95206 5.456ZM9.44219 5.472C9.81019 5.856 10.3702 6.096 11.0982 6.096C12.1702 6.096 12.7862 5.616 12.7862 4.96C12.7862 4.336 12.1622 4.056 11.7382 4.024C12.1702 3.96 12.7062 3.64 12.7062 3.088C12.7062 2.432 12.0582 2.04 11.0262 2.048C10.3542 2.048 9.85819 2.304 9.51419 2.68L9.87419 3.12C10.1782 2.792 10.5622 2.632 11.0582 2.632C11.5862 2.632 11.9542 2.856 11.9542 3.176C11.9542 3.568 11.5942 3.752 11.0262 3.752H10.3702V4.336H11.0262C11.6342 4.336 12.0262 4.488 12.0262 4.904C12.0262 5.264 11.6902 5.512 11.0982 5.512C10.6022 5.512 10.1862 5.304 9.84219 4.976L9.44219 5.472ZM14.421 7.472V5.44C14.733 5.864 15.181 6.096 15.685 6.096C16.693 6.096 17.405 5.328 17.405 4.064C17.405 2.8 16.693 2.04 15.685 2.04C15.165 2.04 14.701 2.304 14.421 2.688V2.136H13.701V7.472H14.421ZM16.653 4.064C16.653 4.872 16.213 5.456 15.493 5.456C15.053 5.456 14.613 5.192 14.421 4.888V3.248C14.613 2.936 15.053 2.68 15.493 2.68C16.213 2.68 16.653 3.264 16.653 4.064ZM20.0302 6.096C21.2382 6.096 21.9822 5.184 21.9822 4.064C21.9822 2.952 21.2382 2.04 20.0302 2.04C18.8302 2.04 18.0782 2.952 18.0782 4.064C18.0782 5.184 18.8302 6.096 20.0302 6.096ZM20.0302 5.456C19.2622 5.456 18.8302 4.8 18.8302 4.064C18.8302 3.336 19.2622 2.68 20.0302 2.68C20.8062 2.68 21.2302 3.336 21.2302 4.064C21.2302 4.8 20.8062 5.456 20.0302 5.456ZM22.6643 3.712C22.6643 5.152 23.3923 6.096 24.6083 6.096C25.8323 6.096 26.5523 5.152 26.5523 4.056C26.5523 3.04 25.8323 2.168 24.7363 2.168C24.1123 2.168 23.5443 2.472 23.2243 2.984C23.3603 2.168 23.8483 1.592 25.1363 1.384L26.1443 1.216V0.576L25.1283 0.736C23.2963 1.016 22.6643 2.008 22.6643 3.712ZM25.8083 4.048C25.8083 4.8 25.3843 5.456 24.6083 5.456C23.8403 5.456 23.4083 4.8 23.4083 4.048C23.4083 3.336 23.8403 2.68 24.6083 2.68C25.3843 2.68 25.8083 3.336 25.8083 4.048ZM26.9565 5.384V6.096C27.7485 6.096 28.3165 5.536 28.4925 3.104L28.5245 2.768H29.9965V6H30.7165V2.136H27.8845L27.8205 3.072C27.6685 4.904 27.3645 5.384 26.9565 5.384ZM31.6251 4.064C31.6251 5.28 32.4731 6.096 33.6251 6.096C34.2491 6.096 34.7931 5.896 35.1771 5.52L34.8411 5.048C34.5531 5.344 34.1051 5.504 33.6971 5.504C32.9211 5.504 32.4411 4.96 32.3851 4.304H35.4411V4.128C35.4411 2.944 34.7211 2.04 33.5611 2.04C32.4331 2.04 31.6251 2.944 31.6251 4.064ZM33.5611 2.632C34.3771 2.632 34.7211 3.272 34.7371 3.784H32.3771C32.4171 3.256 32.7851 2.632 33.5611 2.632ZM36.3416 6H37.0616V4.336H38.9496V6H39.6696V2.136H38.9496V3.704H37.0616V2.136H36.3416V6ZM42.5302 6.096C43.7382 6.096 44.4822 5.184 44.4822 4.064C44.4822 2.952 43.7382 2.04 42.5302 2.04C41.3302 2.04 40.5782 2.952 40.5782 4.064C40.5782 5.184 41.3302 6.096 42.5302 6.096ZM42.5302 5.456C41.7622 5.456 41.3302 4.8 41.3302 4.064C41.3302 3.336 41.7622 2.68 42.5302 2.68C43.3062 2.68 43.7302 3.336 43.7302 4.064C43.7302 4.8 43.3062 5.456 42.5302 5.456ZM47.4588 6H49.5468C50.4428 6 50.8668 5.568 50.8668 4.952C50.8668 4.504 50.5628 4.104 50.1468 4.008C50.4988 3.904 50.7948 3.592 50.7948 3.128C50.7948 2.56 50.3708 2.136 49.5228 2.136H47.4588V6ZM50.0588 3.24C50.0588 3.504 49.8668 3.704 49.5228 3.704H48.1788V2.768H49.5228C49.8588 2.768 50.0588 2.96 50.0588 3.24ZM50.1228 4.856C50.1228 5.176 49.9068 5.368 49.5468 5.368H48.1788V4.336H49.5468C49.9308 4.336 50.1228 4.584 50.1228 4.856Z" fill="white"/>
</g>
<defs>
<clipPath id="clip0_1539_247">
<rect width="165" height="20" fill="white"/>
</clipPath>
</defs>
</svg>
